<svg width="29" height="34" viewBox="0 0 29 34" fill="none" xmlns="http://www.w3.org/2000/svg">
<circle cx="14.0064" cy="15.357" r="14" fill="#C4C4C4"/>
<path d="M19.7304 19.568C19.7304 20.816 19.2744 21.872 18.3624 22.736C17.4664 23.584 16.2744 24.096 14.7864 24.272V26.12C14.7864 26.392 14.7064 26.608 14.5464 26.768C14.4024 26.928 14.2024 27.008 13.9464 27.008C13.6904 27.008 13.4824 26.928 13.3224 26.768C13.1784 26.608 13.1064 26.392 13.1064 26.12V24.296C12.1304 24.232 11.1864 24.04 10.2744 23.72C9.36236 23.4 8.58636 22.944 7.94636 22.352C7.69036 22.144 7.56236 21.872 7.56236 21.536C7.56236 21.312 7.62636 21.12 7.75436 20.96C7.88236 20.784 8.03436 20.696 8.21036 20.696C8.40236 20.696 8.63436 20.784 8.90636 20.96C10.5064 22.08 12.1144 22.64 13.7304 22.64C14.9944 22.64 15.9784 22.376 16.6824 21.848C17.3864 21.32 17.7384 20.568 17.7384 19.592C17.7384 19.016 17.5544 18.552 17.1864 18.2C16.8344 17.832 16.3784 17.552 15.8184 17.36C15.2744 17.152 14.5304 16.936 13.5864 16.712C12.3704 16.408 11.3864 16.104 10.6344 15.8C9.89836 15.496 9.26636 15.032 8.73836 14.408C8.21036 13.784 7.94636 12.944 7.94636 11.888C7.94636 11.024 8.16236 10.248 8.59436 9.56C9.02636 8.85601 9.62636 8.28801 10.3944 7.85601C11.1784 7.42401 12.0744 7.16001 13.0824 7.06401V5.216C13.0824 4.96001 13.1624 4.75201 13.3224 4.59201C13.4824 4.41601 13.6824 4.328 13.9224 4.328C14.1784 4.328 14.3784 4.408 14.5224 4.568C14.6824 4.728 14.7624 4.944 14.7624 5.216V7.06401C15.6104 7.14401 16.4264 7.34401 17.2104 7.664C17.9944 7.98401 18.6584 8.42401 19.2024 8.984C19.4744 9.208 19.6104 9.48001 19.6104 9.80001C19.6104 10.024 19.5384 10.224 19.3944 10.4C19.2664 10.56 19.1144 10.64 18.9384 10.64C18.7304 10.64 18.5064 10.552 18.2664 10.376C17.5624 9.80001 16.8744 9.37601 16.2024 9.104C15.5464 8.83201 14.7784 8.69601 13.8984 8.69601C12.6824 8.69601 11.7144 8.97601 10.9944 9.53601C10.2904 10.096 9.93836 10.856 9.93836 11.816C9.93836 12.488 10.1304 13.024 10.5144 13.424C10.9144 13.824 11.4024 14.136 11.9784 14.36C12.5544 14.568 13.3464 14.8 14.3544 15.056C15.5224 15.344 16.4584 15.632 17.1624 15.92C17.8824 16.208 18.4904 16.648 18.9864 17.24C19.4824 17.816 19.7304 18.592 19.7304 19.568Z" fill="white"/>
</svg>
