<svg width="38" height="43" viewBox="0 0 38 43" fill="none" xmlns="http://www.w3.org/2000/svg">
<ellipse cx="19" cy="19.8438" rx="19" ry="18.2424" fill="#B3B2B2"/>
<path d="M26.4478 24.3C26.4478 25.86 25.8778 27.18 24.7378 28.26C23.6178 29.32 22.1278 29.96 20.2678 30.18V32.49C20.2678 32.83 20.1678 33.1 19.9678 33.3C19.7878 33.5 19.5378 33.6 19.2178 33.6C18.8978 33.6 18.6378 33.5 18.4378 33.3C18.2578 33.1 18.1678 32.83 18.1678 32.49V30.21C16.9478 30.13 15.7678 29.89 14.6278 29.49C13.4878 29.09 12.5178 28.52 11.7178 27.78C11.3978 27.52 11.2378 27.18 11.2378 26.76C11.2378 26.48 11.3178 26.24 11.4778 26.04C11.6378 25.82 11.8278 25.71 12.0478 25.71C12.2878 25.71 12.5778 25.82 12.9178 26.04C14.9178 27.44 16.9278 28.14 18.9478 28.14C20.5278 28.14 21.7578 27.81 22.6378 27.15C23.5178 26.49 23.9578 25.55 23.9578 24.33C23.9578 23.61 23.7278 23.03 23.2678 22.59C22.8278 22.13 22.2578 21.78 21.5578 21.54C20.8778 21.28 19.9478 21.01 18.7678 20.73C17.2478 20.35 16.0178 19.97 15.0778 19.59C14.1578 19.21 13.3678 18.63 12.7078 17.85C12.0478 17.07 11.7178 16.02 11.7178 14.7C11.7178 13.62 11.9878 12.65 12.5278 11.79C13.0678 10.91 13.8178 10.2 14.7778 9.66C15.7578 9.12 16.8778 8.79 18.1378 8.67V6.36C18.1378 6.04 18.2378 5.78 18.4378 5.58C18.6378 5.36 18.8878 5.25 19.1878 5.25C19.5078 5.25 19.7578 5.35 19.9378 5.55C20.1378 5.75 20.2378 6.02 20.2378 6.36V8.67C21.2978 8.77 22.3178 9.02 23.2978 9.42C24.2778 9.82 25.1078 10.37 25.7878 11.07C26.1278 11.35 26.2978 11.69 26.2978 12.09C26.2978 12.37 26.2078 12.62 26.0278 12.84C25.8678 13.04 25.6778 13.14 25.4578 13.14C25.1978 13.14 24.9178 13.03 24.6178 12.81C23.7378 12.09 22.8778 11.56 22.0378 11.22C21.2178 10.88 20.2578 10.71 19.1578 10.71C17.6378 10.71 16.4278 11.06 15.5278 11.76C14.6478 12.46 14.2078 13.41 14.2078 14.61C14.2078 15.45 14.4478 16.12 14.9278 16.62C15.4278 17.12 16.0378 17.51 16.7578 17.79C17.4778 18.05 18.4678 18.34 19.7278 18.66C21.1878 19.02 22.3578 19.38 23.2378 19.74C24.1378 20.1 24.8978 20.65 25.5178 21.39C26.1378 22.11 26.4478 23.08 26.4478 24.3Z" fill="white"/>
</svg>
