<svg width="273" height="48" viewBox="0 0 273 48" fill="none" xmlns="http://www.w3.org/2000/svg">
<g clip-path="url(#clip0)">
<path d="M47.0703 8.41796H43.9102V8.09374C43.9102 7.82812 43.8008 7.57812 43.6094 7.39843C43.418 7.21484 43.1563 7.12499 42.8945 7.13671L24.0117 8.23437L5.12891 7.13671C4.86719 7.12499 4.60938 7.21484 4.41797 7.39843C4.22656 7.57812 4.11719 7.82812 4.11719 8.09374V8.41796H0.957031C0.429688 8.41796 0 8.84374 0 9.37499V39.9336C0 40.4609 0.429688 40.8906 0.957031 40.8906H47.0703C47.5977 40.8906 48.0273 40.4609 48.0273 39.9336V9.37499C48.0273 8.84374 47.5977 8.41796 47.0703 8.41796ZM24.9688 10.0937L41.9961 9.10546V35.3711L24.9688 36.3555V10.0937ZM6.03125 9.10546L23.0547 10.0937V36.3555L6.03125 35.3711V9.10546ZM46.1133 38.9766H1.91406V10.332H4.11719V36.2734C4.11719 36.7812 4.51172 37.1992 5.01953 37.2266L23.957 38.3242C23.9766 38.3281 23.9961 38.3281 24.0117 38.3281C24.0312 38.3281 24.0508 38.3281 24.0664 38.3242L43.0078 37.2266C43.5117 37.1992 43.9102 36.7812 43.9102 36.2734V10.332H46.1133V38.9766Z" fill="black"/>
<path d="M20.5 12.4453L13.8203 12.0586C13.293 12.0273 12.8398 12.4297 12.8086 12.957C12.7813 13.4844 13.1836 13.9375 13.7109 13.9687L20.3906 14.3555C20.4063 14.3555 20.4258 14.3555 20.4453 14.3555C20.9492 14.3555 21.3711 13.9648 21.3984 13.4531C21.4297 12.9258 21.0273 12.4766 20.5 12.4453Z" fill="black"/>
<path d="M8.85937 13.6875L10.5078 13.7812C10.5273 13.7812 10.5469 13.7852 10.5625 13.7852C11.0664 13.7852 11.4883 13.3906 11.5195 12.8828C11.5508 12.3555 11.1484 11.9023 10.6172 11.8711L8.97265 11.7773C8.4414 11.7461 7.99218 12.1484 7.96093 12.6758C7.92968 13.2031 8.33203 13.6562 8.85937 13.6875Z" fill="black"/>
<path d="M20.5 16.8359L8.97265 16.168C8.4414 16.1367 7.99218 16.5391 7.96093 17.0664C7.92968 17.5937 8.33203 18.0469 8.85937 18.0781L20.3906 18.7461C20.4062 18.7461 20.4258 18.7461 20.4453 18.7461C20.9492 18.7461 21.3711 18.3555 21.3984 17.8477C21.4297 17.3203 21.0273 16.8672 20.5 16.8359Z" fill="black"/>
<path d="M20.5 21.3203L8.97265 20.6523C8.4414 20.6211 7.99218 21.0234 7.96093 21.5508C7.92968 22.0781 8.33203 22.5312 8.85937 22.5625L20.3906 23.2305C20.4062 23.2305 20.4258 23.2305 20.4453 23.2305C20.9492 23.2305 21.3711 22.8398 21.3984 22.3281C21.4297 21.8008 21.0273 21.3516 20.5 21.3203Z" fill="black"/>
<path d="M20.5 25.7109L8.97265 25.043C8.4414 25.0117 7.99218 25.4141 7.96093 25.9414C7.92968 26.4687 8.33203 26.9219 8.85937 26.9531L20.3906 27.6211C20.4062 27.6211 20.4258 27.6211 20.4453 27.6211C20.9492 27.6211 21.3711 27.2305 21.3984 26.7227C21.4297 26.1953 21.0273 25.7422 20.5 25.7109Z" fill="black"/>
<path d="M39.2383 25.043L32.1016 25.457C31.5742 25.4883 31.168 25.9414 31.1992 26.4687C31.2305 26.9766 31.6523 27.3672 32.1562 27.3672C32.1719 27.3672 32.1914 27.3672 32.2109 27.3672L39.3477 26.9531C39.875 26.9219 40.2773 26.4687 40.2461 25.9414C40.2148 25.4141 39.7695 25.0117 39.2383 25.043Z" fill="black"/>
<path d="M29.2656 25.6211L27.707 25.7109C27.1797 25.7422 26.7773 26.1953 26.8086 26.7227C26.8398 27.2305 27.2617 27.6211 27.7617 27.6211C27.7812 27.6211 27.8008 27.6211 27.8203 27.6211L29.375 27.5312C29.9023 27.5 30.3047 27.0469 30.2734 26.5195C30.2422 25.9922 29.793 25.5898 29.2656 25.6211Z" fill="black"/>
<path d="M39.2383 20.6523L27.707 21.3203C27.1797 21.3477 26.7773 21.8008 26.8086 22.3281C26.8398 22.8398 27.2617 23.2305 27.7617 23.2305C27.7812 23.2305 27.8008 23.2305 27.8203 23.2305L39.3477 22.5625C39.875 22.5312 40.2773 22.0781 40.2461 21.5508C40.2148 21.0234 39.7695 20.6211 39.2383 20.6523Z" fill="black"/>
<path d="M39.2383 16.168L27.707 16.8359C27.1797 16.8672 26.7773 17.3203 26.8086 17.8477C26.8398 18.3555 27.2617 18.7461 27.7617 18.7461C27.7812 18.7461 27.8008 18.7461 27.8203 18.7461L39.3477 18.0781C39.875 18.0469 40.2773 17.5937 40.2461 17.0664C40.2148 16.5391 39.7695 16.1367 39.2383 16.168Z" fill="black"/>
<path d="M39.2383 11.7773L27.707 12.4453C27.1797 12.4766 26.7773 12.9258 26.8086 13.4531C26.8398 13.9648 27.2617 14.3555 27.7617 14.3555C27.7812 14.3555 27.8008 14.3555 27.8203 14.3555L39.3477 13.6875C39.875 13.6562 40.2773 13.2031 40.2461 12.6758C40.2148 12.1484 39.7695 11.7461 39.2383 11.7773Z" fill="black"/>
</g>
<g filter="url(#filter0_d)">
<path d="M59.3709 32V12.0938H64.99C66.7218 12.0938 68.253 12.4766 69.5838 13.2422C70.9145 14.0078 71.9399 15.097 72.6599 16.5098C73.3891 17.9225 73.7582 19.5449 73.7674 21.377V22.6484C73.7674 24.526 73.4028 26.1712 72.6736 27.584C71.9536 28.9967 70.9191 30.0814 69.5701 30.8379C68.2303 31.5944 66.6671 31.9818 64.8806 32H59.3709ZM61.9959 14.2539V29.8535H64.7576C66.781 29.8535 68.3533 29.2246 69.4744 27.9668C70.6046 26.709 71.1697 24.918 71.1697 22.5938V21.4316C71.1697 19.1712 70.6365 17.4167 69.5701 16.168C68.5128 14.9102 67.0089 14.2721 65.0584 14.2539H61.9959ZM76.6795 24.4668C76.6795 23.0176 76.962 21.7142 77.5271 20.5566C78.1013 19.3991 78.8943 18.5059 79.906 17.877C80.9269 17.248 82.089 16.9336 83.3924 16.9336C85.4067 16.9336 87.0336 17.6309 88.2732 19.0254C89.5219 20.4199 90.1463 22.2747 90.1463 24.5898V24.7676C90.1463 26.2077 89.8683 27.502 89.3123 28.6504C88.7654 29.7897 87.977 30.6784 86.9471 31.3164C85.9262 31.9544 84.7504 32.2734 83.4197 32.2734C81.4145 32.2734 79.7875 31.5762 78.5388 30.1816C77.2993 28.7871 76.6795 26.9414 76.6795 24.6445V24.4668ZM79.2224 24.7676C79.2224 26.4082 79.6007 27.7253 80.3572 28.7188C81.1228 29.7122 82.1437 30.209 83.4197 30.209C84.7049 30.209 85.7257 29.7077 86.4822 28.7051C87.2387 27.6934 87.617 26.2806 87.617 24.4668C87.617 22.8444 87.2296 21.5319 86.4549 20.5293C85.6892 19.5176 84.6684 19.0117 83.3924 19.0117C82.1437 19.0117 81.1365 19.5085 80.3709 20.502C79.6053 21.4954 79.2224 22.9173 79.2224 24.7676ZM95.7107 17.207L95.7928 19.0664C96.923 17.6445 98.3995 16.9336 100.222 16.9336C103.349 16.9336 104.926 18.6973 104.953 22.2246V32H102.424V22.2109C102.414 21.1445 102.168 20.3561 101.685 19.8457C101.211 19.3353 100.469 19.0801 99.4568 19.0801C98.6365 19.0801 97.9165 19.2988 97.2967 19.7363C96.6769 20.1738 96.1938 20.748 95.8474 21.459V32H93.3181V17.207H95.7107ZM117.9 32C117.754 31.7083 117.636 31.1888 117.545 30.4414C116.369 31.6628 114.965 32.2734 113.334 32.2734C111.875 32.2734 110.677 31.8633 109.738 31.043C108.808 30.2135 108.344 29.1654 108.344 27.8984C108.344 26.3581 108.927 25.1641 110.094 24.3164C111.269 23.4596 112.919 23.0312 115.043 23.0312H117.504V21.8691C117.504 20.985 117.239 20.2832 116.711 19.7637C116.182 19.235 115.403 18.9707 114.373 18.9707C113.47 18.9707 112.714 19.1986 112.103 19.6543C111.493 20.11 111.187 20.6615 111.187 21.3086H108.644C108.644 20.5703 108.904 19.8594 109.424 19.1758C109.952 18.4831 110.663 17.9362 111.556 17.5352C112.459 17.1341 113.448 16.9336 114.523 16.9336C116.228 16.9336 117.563 17.362 118.529 18.2188C119.495 19.0664 119.997 20.2376 120.033 21.7324V28.541C120.033 29.8991 120.206 30.9792 120.553 31.7812V32H117.9ZM113.703 30.0723C114.496 30.0723 115.248 29.8672 115.959 29.457C116.67 29.0469 117.185 28.5137 117.504 27.8574V24.8223H115.521C112.422 24.8223 110.873 25.7292 110.873 27.543C110.873 28.3359 111.137 28.9557 111.666 29.4023C112.194 29.849 112.873 30.0723 113.703 30.0723ZM127.429 13.625V17.207H130.191V19.1621H127.429V28.3359C127.429 28.9284 127.553 29.375 127.799 29.6758C128.045 29.9674 128.464 30.1133 129.056 30.1133C129.348 30.1133 129.749 30.0586 130.26 29.9492V32C129.594 32.1823 128.947 32.2734 128.318 32.2734C127.188 32.2734 126.336 31.9316 125.762 31.248C125.187 30.5645 124.9 29.5938 124.9 28.3359V19.1621H122.207V17.207H124.9V13.625H127.429ZM135.906 32H133.377V17.207H135.906V32ZM133.172 13.2832C133.172 12.873 133.295 12.5267 133.541 12.2441C133.796 11.9616 134.17 11.8203 134.662 11.8203C135.154 11.8203 135.528 11.9616 135.783 12.2441C136.038 12.5267 136.166 12.873 136.166 13.2832C136.166 13.6934 136.038 14.0352 135.783 14.3086C135.528 14.582 135.154 14.7188 134.662 14.7188C134.17 14.7188 133.796 14.582 133.541 14.3086C133.295 14.0352 133.172 13.6934 133.172 13.2832ZM139.297 24.4668C139.297 23.0176 139.579 21.7142 140.144 20.5566C140.719 19.3991 141.512 18.5059 142.523 17.877C143.544 17.248 144.706 16.9336 146.01 16.9336C148.024 16.9336 149.651 17.6309 150.89 19.0254C152.139 20.4199 152.763 22.2747 152.763 24.5898V24.7676C152.763 26.2077 152.485 27.502 151.929 28.6504C151.383 29.7897 150.594 30.6784 149.564 31.3164C148.543 31.9544 147.368 32.2734 146.037 32.2734C144.032 32.2734 142.405 31.5762 141.156 30.1816C139.916 28.7871 139.297 26.9414 139.297 24.6445V24.4668ZM141.84 24.7676C141.84 26.4082 142.218 27.7253 142.974 28.7188C143.74 29.7122 144.761 30.209 146.037 30.209C147.322 30.209 148.343 29.7077 149.099 28.7051C149.856 27.6934 150.234 26.2806 150.234 24.4668C150.234 22.8444 149.847 21.5319 149.072 20.5293C148.306 19.5176 147.286 19.0117 146.01 19.0117C144.761 19.0117 143.754 19.5085 142.988 20.502C142.222 21.4954 141.84 22.9173 141.84 24.7676ZM158.328 17.207L158.41 19.0664C159.54 17.6445 161.017 16.9336 162.84 16.9336C165.966 16.9336 167.543 18.6973 167.57 22.2246V32H165.041V22.2109C165.032 21.1445 164.786 20.3561 164.303 19.8457C163.829 19.3353 163.086 19.0801 162.074 19.0801C161.254 19.0801 160.534 19.2988 159.914 19.7363C159.294 20.1738 158.811 20.748 158.465 21.459V32H155.935V17.207H158.328ZM191.933 14.2539H185.535V32H182.924V14.2539H176.539V12.0938H191.933V14.2539ZM200.601 19.4766C200.219 19.4128 199.804 19.3809 199.357 19.3809C197.698 19.3809 196.573 20.0872 195.98 21.5V32H193.451V17.207H195.912L195.953 18.916C196.782 17.5944 197.958 16.9336 199.48 16.9336C199.972 16.9336 200.346 16.9974 200.601 17.125V19.4766ZM211.525 32C211.379 31.7083 211.261 31.1888 211.17 30.4414C209.994 31.6628 208.59 32.2734 206.959 32.2734C205.5 32.2734 204.302 31.8633 203.363 31.043C202.433 30.2135 201.969 29.1654 201.969 27.8984C201.969 26.3581 202.552 25.1641 203.719 24.3164C204.894 23.4596 206.544 23.0312 208.668 23.0312H211.129V21.8691C211.129 20.985 210.864 20.2832 210.336 19.7637C209.807 19.235 209.028 18.9707 207.998 18.9707C207.095 18.9707 206.339 19.1986 205.728 19.6543C205.118 20.11 204.812 20.6615 204.812 21.3086H202.269C202.269 20.5703 202.529 19.8594 203.049 19.1758C203.577 18.4831 204.288 17.9362 205.181 17.5352C206.084 17.1341 207.073 16.9336 208.148 16.9336C209.853 16.9336 211.188 17.362 212.154 18.2188C213.12 19.0664 213.622 20.2376 213.658 21.7324V28.541C213.658 29.8991 213.831 30.9792 214.178 31.7812V32H211.525ZM207.328 30.0723C208.121 30.0723 208.873 29.8672 209.584 29.457C210.295 29.0469 210.81 28.5137 211.129 27.8574V24.8223H209.146C206.047 24.8223 204.498 25.7292 204.498 27.543C204.498 28.3359 204.762 28.9557 205.291 29.4023C205.819 29.849 206.498 30.0723 207.328 30.0723ZM223.556 30.209C224.459 30.209 225.247 29.9355 225.922 29.3887C226.596 28.8418 226.97 28.1582 227.043 27.3379H229.435C229.39 28.1855 229.098 28.9922 228.56 29.7578C228.023 30.5234 227.303 31.1341 226.4 31.5898C225.507 32.0456 224.559 32.2734 223.556 32.2734C221.542 32.2734 219.938 31.6035 218.744 30.2637C217.559 28.9147 216.967 27.0736 216.967 24.7402V24.3164C216.967 22.8763 217.231 21.5957 217.76 20.4746C218.288 19.3535 219.045 18.4831 220.029 17.8633C221.023 17.2435 222.194 16.9336 223.543 16.9336C225.202 16.9336 226.578 17.4303 227.672 18.4238C228.775 19.4173 229.362 20.707 229.435 22.293H227.043C226.97 21.3359 226.605 20.5521 225.949 19.9414C225.302 19.3216 224.5 19.0117 223.543 19.0117C222.258 19.0117 221.26 19.4766 220.549 20.4062C219.847 21.3268 219.496 22.6621 219.496 24.4121V24.8906C219.496 26.5951 219.847 27.9076 220.549 28.8281C221.25 29.7487 222.253 30.209 223.556 30.209ZM236.408 25.1504L234.822 26.8047V32H232.293V11H234.822V23.7012L236.176 22.0742L240.783 17.207H243.859L238.103 23.3867L244.529 32H241.562L236.408 25.1504ZM252.336 32.2734C250.331 32.2734 248.699 31.6172 247.441 30.3047C246.183 28.9831 245.554 27.2194 245.554 25.0137V24.5488C245.554 23.0814 245.832 21.7734 246.388 20.625C246.954 19.4674 247.737 18.5651 248.74 17.918C249.752 17.2617 250.845 16.9336 252.021 16.9336C253.944 16.9336 255.439 17.5671 256.506 18.834C257.572 20.1009 258.105 21.9147 258.105 24.2754V25.3281H248.084C248.12 26.7865 248.544 27.9668 249.355 28.8691C250.176 29.7624 251.215 30.209 252.472 30.209C253.366 30.209 254.122 30.0267 254.742 29.6621C255.362 29.2975 255.904 28.8145 256.369 28.2129L257.914 29.416C256.674 31.321 254.815 32.2734 252.336 32.2734ZM252.021 19.0117C251 19.0117 250.144 19.3854 249.451 20.1328C248.758 20.8711 248.33 21.9102 248.166 23.25H255.576V23.0586C255.503 21.7734 255.157 20.7799 254.537 20.0781C253.917 19.3672 253.079 19.0117 252.021 19.0117ZM268.195 19.4766C267.812 19.4128 267.398 19.3809 266.951 19.3809C265.292 19.3809 264.166 20.0872 263.574 21.5V32H261.045V17.207H263.506L263.547 18.916C264.376 17.5944 265.552 16.9336 267.074 16.9336C267.566 16.9336 267.94 16.9974 268.195 17.125V19.4766Z" fill="black"/>
<path d="M59.3709 32H58.8709V32.5H59.3709V32ZM59.3709 12.0938V11.5938H58.8709V12.0938H59.3709ZM72.6599 16.5098L72.2145 16.7368L72.2156 16.7391L72.6599 16.5098ZM73.7674 21.377L74.2674 21.377L74.2674 21.3745L73.7674 21.377ZM72.6736 27.584L72.2293 27.3547L72.2281 27.3569L72.6736 27.584ZM69.5701 30.8379L69.3255 30.4018L69.3243 30.4025L69.5701 30.8379ZM64.8806 32V32.5L64.8857 32.5L64.8806 32ZM61.9959 14.2539V13.7539H61.4959V14.2539H61.9959ZM61.9959 29.8535H61.4959V30.3535H61.9959V29.8535ZM69.4744 27.9668L69.1025 27.6326L69.1011 27.6341L69.4744 27.9668ZM69.5701 16.168L69.1873 16.4897L69.1899 16.4927L69.5701 16.168ZM65.0584 14.2539L65.0631 13.7539H65.0584V14.2539ZM59.8709 32V12.0938H58.8709V32H59.8709ZM59.3709 12.5938H64.99V11.5938H59.3709V12.5938ZM64.99 12.5938C66.6457 12.5938 68.0889 12.959 69.3344 13.6756L69.8331 12.8088C68.4172 11.9942 66.7979 11.5938 64.99 11.5938V12.5938ZM69.3344 13.6756C70.5783 14.3912 71.5369 15.4074 72.2145 16.7368L73.1054 16.2827C72.3429 14.7866 71.2507 13.6244 69.8331 12.8088L69.3344 13.6756ZM72.2156 16.7391C72.9034 18.0717 73.2586 19.6143 73.2674 21.3794L74.2674 21.3745C74.2579 19.4756 73.8748 17.7734 73.1043 16.2804L72.2156 16.7391ZM73.2674 21.377V22.6484H74.2674V21.377H73.2674ZM73.2674 22.6484C73.2674 24.4607 72.9158 26.0246 72.2293 27.3547L73.1179 27.8133C73.8898 26.3179 74.2674 24.5914 74.2674 22.6484H73.2674ZM72.2281 27.3569C71.5517 28.6841 70.5861 29.6949 69.3255 30.4018L69.8147 31.274C71.2521 30.4679 72.3554 29.3094 73.1191 27.811L72.2281 27.3569ZM69.3243 30.4025C68.069 31.1113 66.5913 31.4825 64.8755 31.5L64.8857 32.5C66.7429 32.481 68.3915 32.0775 69.8159 31.2733L69.3243 30.4025ZM64.8806 31.5H59.3709V32.5H64.8806V31.5ZM61.4959 14.2539V29.8535H62.4959V14.2539H61.4959ZM61.9959 30.3535H64.7576V29.3535H61.9959V30.3535ZM64.7576 30.3535C66.8924 30.3535 68.6127 29.685 69.8477 28.2995L69.1011 27.6341C68.0939 28.7642 66.6697 29.3535 64.7576 29.3535V30.3535ZM69.8463 28.301C71.0855 26.9219 71.6697 24.9949 71.6697 22.5938H70.6697C70.6697 24.8411 70.1237 26.4961 69.1025 27.6326L69.8463 28.301ZM71.6697 22.5938V21.4316H70.6697V22.5938H71.6697ZM71.6697 21.4316C71.6697 19.0969 71.1188 17.2115 69.9503 15.8433L69.1899 16.4927C70.1542 17.6218 70.6697 19.2455 70.6697 21.4316H71.6697ZM69.9528 15.8462C68.7838 14.4555 67.1295 13.7732 65.0631 13.7539L65.0537 14.7539C66.8883 14.771 68.2418 15.3648 69.1874 16.4897L69.9528 15.8462ZM65.0584 13.7539H61.9959V14.7539H65.0584V13.7539ZM77.5271 20.5566L77.0792 20.3344L77.0778 20.3373L77.5271 20.5566ZM79.906 17.877L79.6438 17.4513L79.6421 17.4523L79.906 17.877ZM88.2732 19.0254L87.8995 19.3576L87.9007 19.3589L88.2732 19.0254ZM89.3123 28.6504L88.8622 28.4325L88.8615 28.434L89.3123 28.6504ZM86.9471 31.3164L86.6837 30.8914L86.6821 30.8924L86.9471 31.3164ZM78.5388 30.1816L78.1651 30.5138L78.1664 30.5152L78.5388 30.1816ZM80.3572 28.7188L79.9594 29.0217L79.9612 29.024L80.3572 28.7188ZM86.4822 28.7051L86.8813 29.0062L86.8826 29.0045L86.4822 28.7051ZM86.4549 20.5293L86.0561 20.831L86.0592 20.835L86.4549 20.5293ZM77.1795 24.4668C77.1795 23.084 77.4487 21.8571 77.9764 20.776L77.0778 20.3373C76.4754 21.5713 76.1795 22.9511 76.1795 24.4668H77.1795ZM77.975 20.7788C78.5116 19.6972 79.2439 18.8773 80.17 18.3016L79.6421 17.4523C78.5447 18.1344 77.6911 19.1009 77.0792 20.3344L77.975 20.7788ZM80.1683 18.3027C81.1035 17.7265 82.1732 17.4336 83.3924 17.4336V16.4336C82.0047 16.4336 80.7503 16.7696 79.6438 17.4513L80.1683 18.3027ZM83.3924 17.4336C85.2767 17.4336 86.763 18.079 87.8995 19.3576L88.6469 18.6932C87.3043 17.1827 85.5367 16.4336 83.3924 16.4336V17.4336ZM87.9007 19.3589C89.0491 20.6414 89.6463 22.3674 89.6463 24.5898H90.6463C90.6463 22.182 89.9948 20.1984 88.6457 18.6919L87.9007 19.3589ZM89.6463 24.5898V24.7676H90.6463V24.5898H89.6463ZM89.6463 24.7676C89.6463 26.142 89.3814 27.3603 88.8623 28.4325L89.7623 28.8683C90.3552 27.6436 90.6463 26.2734 90.6463 24.7676H89.6463ZM88.8615 28.434C88.3541 29.4912 87.629 30.3058 86.6837 30.8914L87.2104 31.7415C88.325 31.051 89.1768 30.0882 89.763 28.8668L88.8615 28.434ZM86.6821 30.8924C85.7489 31.4756 84.6669 31.7734 83.4197 31.7734V32.7734C84.8339 32.7734 86.1035 32.4332 87.2121 31.7404L86.6821 30.8924ZM83.4197 31.7734C81.5453 31.7734 80.0578 31.1285 78.9113 29.8481L78.1664 30.5152C79.5173 32.0239 81.2837 32.7734 83.4197 32.7734V31.7734ZM78.9126 29.8495C77.772 28.5663 77.1795 26.8485 77.1795 24.6445H76.1795C76.1795 27.0344 76.8265 29.0079 78.1651 30.5138L78.9126 29.8495ZM77.1795 24.6445V24.4668H76.1795V24.6445H77.1795ZM78.7224 24.7676C78.7224 26.4833 79.1184 27.9173 79.9594 29.0217L80.755 28.4158C80.083 27.5333 79.7224 26.3331 79.7224 24.7676H78.7224ZM79.9612 29.024C80.8234 30.1428 81.9917 30.709 83.4197 30.709V29.709C82.2956 29.709 81.4223 29.2817 80.7532 28.4135L79.9612 29.024ZM83.4197 30.709C84.8574 30.709 86.0278 30.1374 86.8813 29.0062L86.0831 28.4039C85.4236 29.2779 84.5523 29.709 83.4197 29.709V30.709ZM86.8826 29.0045C87.7265 27.8759 88.117 26.3431 88.117 24.4668H87.117C87.117 26.2181 86.7509 27.5108 86.0818 28.4057L86.8826 29.0045ZM88.117 24.4668C88.117 22.7651 87.7099 21.3357 86.8505 20.2236L86.0592 20.835C86.7494 21.7281 87.117 22.9237 87.117 24.4668H88.117ZM86.8536 20.2276C85.9928 19.0901 84.824 18.5117 83.3924 18.5117V19.5117C84.5128 19.5117 85.3857 19.945 86.0562 20.831L86.8536 20.2276ZM83.3924 18.5117C81.9878 18.5117 80.8346 19.0811 79.9748 20.1967L80.7669 20.8072C81.4384 19.9359 82.2996 19.5117 83.3924 19.5117V18.5117ZM79.9748 20.1967C79.1164 21.3106 78.7224 22.8573 78.7224 24.7676H79.7224C79.7224 22.9774 80.0941 21.6803 80.7669 20.8072L79.9748 20.1967ZM95.7107 17.207L96.2102 17.185L96.1892 16.707H95.7107V17.207ZM95.7928 19.0664L95.2932 19.0884L95.3522 20.4242L96.1842 19.3775L95.7928 19.0664ZM104.953 22.2246L105.453 22.2246L105.453 22.2207L104.953 22.2246ZM104.953 32V32.5H105.453V32H104.953ZM102.424 32H101.924V32.5H102.424V32ZM102.424 22.2109H102.924L102.924 22.2067L102.424 22.2109ZM101.685 19.8457L101.319 20.1859L101.322 20.1894L101.685 19.8457ZM95.8474 21.459L95.3979 21.24L95.3474 21.3437V21.459H95.8474ZM95.8474 32V32.5H96.3474V32H95.8474ZM93.3181 32H92.8181V32.5H93.3181V32ZM93.3181 17.207V16.707H92.8181V17.207H93.3181ZM95.2112 17.2291L95.2932 19.0884L96.2923 19.0444L96.2102 17.185L95.2112 17.2291ZM96.1842 19.3775C97.2191 18.0755 98.5513 17.4336 100.222 17.4336V16.4336C98.2477 16.4336 96.6268 17.2136 95.4013 18.7553L96.1842 19.3775ZM100.222 17.4336C101.692 17.4336 102.711 17.8452 103.377 18.5896C104.053 19.3452 104.44 20.5284 104.453 22.2285L105.453 22.2207C105.439 20.3935 105.024 18.9311 104.123 17.9231C103.211 16.9038 101.88 16.4336 100.222 16.4336V17.4336ZM104.453 22.2246V32H105.453V22.2246H104.453ZM104.953 31.5H102.424V32.5H104.953V31.5ZM102.924 32V22.2109H101.924V32H102.924ZM102.924 22.2067C102.914 21.0775 102.654 20.1418 102.048 19.502L101.322 20.1894C101.683 20.5704 101.915 21.2115 101.924 22.2152L102.924 22.2067ZM102.052 19.5055C101.447 18.8544 100.544 18.5801 99.4568 18.5801V19.5801C100.393 19.5801 100.976 19.8162 101.319 20.1859L102.052 19.5055ZM99.4568 18.5801C98.5421 18.5801 97.7194 18.8259 97.0083 19.3278L97.585 20.1448C98.1135 19.7718 98.7309 19.5801 99.4568 19.5801V18.5801ZM97.0083 19.3278C96.3167 19.816 95.7796 20.4567 95.3979 21.24L96.2969 21.678C96.608 21.0394 97.037 20.5316 97.585 20.1448L97.0083 19.3278ZM95.3474 21.459V32H96.3474V21.459H95.3474ZM95.8474 31.5H93.3181V32.5H95.8474V31.5ZM93.8181 32V17.207H92.8181V32H93.8181ZM93.3181 17.707H95.7107V16.707H93.3181V17.707ZM117.9 32L117.453 32.2236L117.591 32.5H117.9V32ZM117.545 30.4414L118.041 30.3809L117.914 29.3371L117.184 30.0946L117.545 30.4414ZM109.738 31.043L109.405 31.4161L109.409 31.4195L109.738 31.043ZM110.094 24.3164L110.387 24.7209L110.388 24.7205L110.094 24.3164ZM117.504 23.0312V23.5312H118.004V23.0312H117.504ZM116.711 19.7637L116.357 20.1172L116.36 20.1203L116.711 19.7637ZM111.187 21.3086V21.8086H111.687V21.3086H111.187ZM108.644 21.3086H108.144V21.8086H108.644V21.3086ZM109.424 19.1758L109.026 18.8724L109.026 18.8732L109.424 19.1758ZM111.556 17.5352L111.353 17.0782L111.352 17.079L111.556 17.5352ZM118.529 18.2188L118.197 18.5928L118.199 18.5946L118.529 18.2188ZM120.033 21.7324L120.533 21.7324L120.533 21.7202L120.033 21.7324ZM120.553 31.7812H121.053V31.6779L121.012 31.583L120.553 31.7812ZM120.553 32V32.5H121.053V32H120.553ZM117.504 27.8574L117.953 28.076L118.004 27.9725V27.8574H117.504ZM117.504 24.8223H118.004V24.3223H117.504V24.8223ZM118.347 31.7764C118.244 31.569 118.132 31.1264 118.041 30.3809L117.048 30.5019C117.14 31.2512 117.265 31.8477 117.453 32.2236L118.347 31.7764ZM117.184 30.0946C116.099 31.2224 114.824 31.7734 113.334 31.7734V32.7734C115.107 32.7734 116.639 32.1031 117.905 30.7882L117.184 30.0946ZM113.334 31.7734C111.975 31.7734 110.9 31.3939 110.067 30.6665L109.409 31.4195C110.454 32.3326 111.776 32.7734 113.334 32.7734V31.7734ZM110.071 30.6699C109.25 29.9371 108.844 29.0256 108.844 27.8984H107.844C107.844 29.3051 108.367 30.49 109.405 31.4161L110.071 30.6699ZM108.844 27.8984C108.844 26.5054 109.36 25.4672 110.387 24.7209L109.8 23.9119C108.493 24.8609 107.844 26.2108 107.844 27.8984H108.844ZM110.388 24.7205C111.447 23.9488 112.978 23.5312 115.043 23.5312V22.5312C112.86 22.5312 111.092 22.9705 109.799 23.9123L110.388 24.7205ZM115.043 23.5312H117.504V22.5312H115.043V23.5312ZM118.004 23.0312V21.8691H117.004V23.0312H118.004ZM118.004 21.8691C118.004 20.8787 117.704 20.0384 117.061 19.4071L116.36 20.1203C116.775 20.528 117.004 21.0913 117.004 21.8691H118.004ZM117.064 19.4101C116.411 18.7569 115.484 18.4707 114.373 18.4707V19.4707C115.321 19.4707 115.953 19.7132 116.357 20.1172L117.064 19.4101ZM114.373 18.4707C113.383 18.4707 112.516 18.7221 111.804 19.2536L112.402 20.055C112.912 19.675 113.558 19.4707 114.373 19.4707V18.4707ZM111.804 19.2536C111.093 19.7847 110.687 20.4744 110.687 21.3086H111.687C111.687 20.8485 111.893 20.4353 112.402 20.055L111.804 19.2536ZM111.187 20.8086H108.644V21.8086H111.187V20.8086ZM109.144 21.3086C109.144 20.6968 109.357 20.0897 109.822 19.4783L109.026 18.8732C108.451 19.6291 108.144 20.4439 108.144 21.3086H109.144ZM109.821 19.4791C110.293 18.8604 110.934 18.3625 111.761 17.9913L111.352 17.079C110.392 17.5099 109.611 18.1057 109.026 18.8724L109.821 19.4791ZM111.759 17.9921C112.592 17.6219 113.511 17.4336 114.523 17.4336V16.4336C113.384 16.4336 112.325 16.6463 111.353 17.0783L111.759 17.9921ZM114.523 17.4336C116.145 17.4336 117.349 17.8402 118.197 18.5928L118.861 17.8447C117.777 16.8837 116.31 16.4336 114.523 16.4336V17.4336ZM118.199 18.5946C119.043 19.3348 119.499 20.3645 119.533 21.7446L120.533 21.7202C120.494 20.1108 119.947 18.798 118.859 17.8429L118.199 18.5946ZM119.533 21.7324V28.541H120.533V21.7324H119.533ZM119.533 28.541C119.533 29.9334 119.709 31.0898 120.093 31.9795L121.012 31.583C120.703 30.8685 120.533 29.8647 120.533 28.541H119.533ZM120.053 31.7812V32H121.053V31.7812H120.053ZM120.553 31.5H117.9V32.5H120.553V31.5ZM113.703 30.5723C114.587 30.5723 115.424 30.3425 116.209 29.8901L115.709 29.0239C115.071 29.3919 114.405 29.5723 113.703 29.5723V30.5723ZM116.209 29.8901C116.995 29.4365 117.585 28.8331 117.953 28.076L117.054 27.6388C116.784 28.1943 116.345 28.6572 115.709 29.0239L116.209 29.8901ZM118.004 27.8574V24.8223H117.004V27.8574H118.004ZM117.504 24.3223H115.521V25.3223H117.504V24.3223ZM115.521 24.3223C113.939 24.3223 112.671 24.5508 111.782 25.0709C110.852 25.6152 110.373 26.4608 110.373 27.543H111.373C111.373 26.8114 111.668 26.2966 112.288 25.934C112.948 25.5471 114.004 25.3223 115.521 25.3223V24.3223ZM110.373 27.543C110.373 28.4592 110.685 29.2282 111.343 29.7843L111.988 29.0204C111.589 28.6832 111.373 28.2127 111.373 27.543H110.373ZM111.343 29.7843C111.979 30.3216 112.78 30.5723 113.703 30.5723V29.5723C112.967 29.5723 112.41 29.3763 111.988 29.0204L111.343 29.7843ZM127.429 13.625H127.929V13.125H127.429V13.625ZM127.429 17.207H126.929V17.707H127.429V17.207ZM130.191 17.207H130.691V16.707H130.191V17.207ZM130.191 19.1621V19.6621H130.691V19.1621H130.191ZM127.429 19.1621V18.6621H126.929V19.1621H127.429ZM127.799 29.6758L127.412 29.9924L127.416 29.9982L127.799 29.6758ZM130.26 29.9492H130.76V29.3307L130.155 29.4603L130.26 29.9492ZM130.26 32L130.392 32.4822L130.76 32.3814V32H130.26ZM124.9 19.1621H125.4V18.6621H124.9V19.1621ZM122.207 19.1621H121.707V19.6621H122.207V19.1621ZM122.207 17.207V16.707H121.707V17.207H122.207ZM124.9 17.207V17.707H125.4V17.207H124.9ZM124.9 13.625V13.125H124.4V13.625H124.9ZM126.929 13.625V17.207H127.929V13.625H126.929ZM127.429 17.707H130.191V16.707H127.429V17.707ZM129.691 17.207V19.1621H130.691V17.207H129.691ZM130.191 18.6621H127.429V19.6621H130.191V18.6621ZM126.929 19.1621V28.3359H127.929V19.1621H126.929ZM126.929 28.3359C126.929 28.986 127.063 29.566 127.412 29.9924L128.186 29.3592C128.042 29.184 127.929 28.8707 127.929 28.3359H126.929ZM127.416 29.9982C127.8 30.4526 128.398 30.6133 129.056 30.6133V29.6133C128.53 29.6133 128.29 29.4823 128.181 29.3533L127.416 29.9982ZM129.056 30.6133C129.401 30.6133 129.842 30.5501 130.364 30.4381L130.155 29.4603C129.656 29.5671 129.296 29.6133 129.056 29.6133V30.6133ZM129.76 29.9492V32H130.76V29.9492H129.76ZM130.127 31.5178C129.501 31.6894 128.898 31.7734 128.318 31.7734V32.7734C128.996 32.7734 129.687 32.6752 130.392 32.4822L130.127 31.5178ZM128.318 31.7734C127.293 31.7734 126.599 31.468 126.144 30.9265L125.379 31.5696C126.072 32.3953 127.083 32.7734 128.318 32.7734V31.7734ZM126.144 30.9265C125.672 30.3636 125.4 29.5236 125.4 28.3359H124.4C124.4 29.6639 124.703 30.7653 125.379 31.5696L126.144 30.9265ZM125.4 28.3359V19.1621H124.4V28.3359H125.4ZM124.9 18.6621H122.207V19.6621H124.9V18.6621ZM122.707 19.1621V17.207H121.707V19.1621H122.707ZM122.207 17.707H124.9V16.707H122.207V17.707ZM125.4 17.207V13.625H124.4V17.207H125.4ZM124.9 14.125H127.429V13.125H124.9V14.125ZM135.906 32V32.5H136.406V32H135.906ZM133.377 32H132.877V32.5H133.377V32ZM133.377 17.207V16.707H132.877V17.207H133.377ZM135.906 17.207H136.406V16.707H135.906V17.207ZM133.541 12.2441L133.17 11.9089L133.164 11.9158L133.541 12.2441ZM133.541 14.3086L133.169 14.6431L133.175 14.6498L133.541 14.3086ZM135.906 31.5H133.377V32.5H135.906V31.5ZM133.877 32V17.207H132.877V32H133.877ZM133.377 17.707H135.906V16.707H133.377V17.707ZM135.406 17.207V32H136.406V17.207H135.406ZM133.672 13.2832C133.672 12.9815 133.759 12.7552 133.918 12.5725L133.164 11.9158C132.831 12.2982 132.672 12.7646 132.672 13.2832H133.672ZM133.912 12.5793C134.046 12.4304 134.267 12.3203 134.662 12.3203V11.3203C134.072 11.3203 133.546 11.4928 133.17 11.909L133.912 12.5793ZM134.662 12.3203C135.057 12.3203 135.277 12.4304 135.412 12.5793L136.154 11.909C135.778 11.4928 135.252 11.3203 134.662 11.3203V12.3203ZM135.412 12.5793C135.577 12.7625 135.666 12.9865 135.666 13.2832H136.666C136.666 12.7596 136.499 12.2909 136.154 11.909L135.412 12.5793ZM135.666 13.2832C135.666 13.58 135.578 13.7959 135.417 13.9674L136.149 14.6498C136.499 14.2744 136.666 13.8067 136.666 13.2832H135.666ZM135.417 13.9674C135.284 14.1103 135.061 14.2188 134.662 14.2188V15.2188C135.247 15.2188 135.771 15.0538 136.149 14.6498L135.417 13.9674ZM134.662 14.2188C134.262 14.2188 134.04 14.1103 133.906 13.9674L133.175 14.6498C133.552 15.0538 134.077 15.2188 134.662 15.2188V14.2188ZM133.912 13.9741C133.759 13.8033 133.672 13.5851 133.672 13.2832H132.672C132.672 13.8016 132.831 14.2671 133.169 14.6431L133.912 13.9741ZM140.144 20.5566L139.696 20.3344L139.695 20.3373L140.144 20.5566ZM142.523 17.877L142.261 17.4513L142.259 17.4523L142.523 17.877ZM150.89 19.0254L150.517 19.3576L150.518 19.3589L150.89 19.0254ZM151.929 28.6504L151.479 28.4325L151.479 28.434L151.929 28.6504ZM149.564 31.3164L149.301 30.8914L149.299 30.8924L149.564 31.3164ZM141.156 30.1816L140.782 30.5138L140.784 30.5152L141.156 30.1816ZM142.974 28.7188L142.577 29.0217L142.578 29.024L142.974 28.7188ZM149.099 28.7051L149.499 29.0062L149.5 29.0045L149.099 28.7051ZM149.072 20.5293L148.673 20.831L148.676 20.835L149.072 20.5293ZM139.797 24.4668C139.797 23.084 140.066 21.8571 140.594 20.776L139.695 20.3373C139.093 21.5713 138.797 22.9511 138.797 24.4668H139.797ZM140.592 20.7788C141.129 19.6972 141.861 18.8773 142.787 18.3016L142.259 17.4523C141.162 18.1344 140.308 19.1009 139.696 20.3344L140.592 20.7788ZM142.785 18.3027C143.721 17.7265 144.79 17.4336 146.01 17.4336V16.4336C144.622 16.4336 143.367 16.7696 142.261 17.4513L142.785 18.3027ZM146.01 17.4336C147.894 17.4336 149.38 18.079 150.517 19.3576L151.264 18.6932C149.921 17.1827 148.154 16.4336 146.01 16.4336V17.4336ZM150.518 19.3589C151.666 20.6414 152.263 22.3674 152.263 24.5898H153.263C153.263 22.182 152.612 20.1984 151.263 18.6919L150.518 19.3589ZM152.263 24.5898V24.7676H153.263V24.5898H152.263ZM152.263 24.7676C152.263 26.142 151.999 27.3603 151.479 28.4325L152.38 28.8683C152.972 27.6436 153.263 26.2734 153.263 24.7676H152.263ZM151.479 28.434C150.971 29.4912 150.246 30.3058 149.301 30.8914L149.828 31.7415C150.942 31.051 151.794 30.0882 152.38 28.8668L151.479 28.434ZM149.299 30.8924C148.366 31.4756 147.284 31.7734 146.037 31.7734V32.7734C147.451 32.7734 148.721 32.4332 149.829 31.7404L149.299 30.8924ZM146.037 31.7734C144.162 31.7734 142.675 31.1285 141.529 29.8481L140.784 30.5152C142.134 32.0239 143.901 32.7734 146.037 32.7734V31.7734ZM141.53 29.8495C140.389 28.5663 139.797 26.8485 139.797 24.6445H138.797C138.797 27.0344 139.444 29.0079 140.782 30.5138L141.53 29.8495ZM139.797 24.6445V24.4668H138.797V24.6445H139.797ZM141.34 24.7676C141.34 26.4833 141.736 27.9173 142.577 29.0217L143.372 28.4158C142.7 27.5333 142.34 26.3331 142.34 24.7676H141.34ZM142.578 29.024C143.441 30.1428 144.609 30.709 146.037 30.709V29.709C144.913 29.709 144.039 29.2817 143.37 28.4135L142.578 29.024ZM146.037 30.709C147.475 30.709 148.645 30.1374 149.499 29.0062L148.7 28.4039C148.041 29.2779 147.169 29.709 146.037 29.709V30.709ZM149.5 29.0045C150.344 27.8759 150.734 26.3431 150.734 24.4668H149.734C149.734 26.2181 149.368 27.5108 148.699 28.4057L149.5 29.0045ZM150.734 24.4668C150.734 22.7651 150.327 21.3357 149.468 20.2236L148.676 20.835C149.367 21.7281 149.734 22.9237 149.734 24.4668H150.734ZM149.471 20.2276C148.61 19.0901 147.441 18.5117 146.01 18.5117V19.5117C147.13 19.5117 148.003 19.945 148.673 20.831L149.471 20.2276ZM146.01 18.5117C144.605 18.5117 143.452 19.0811 142.592 20.1967L143.384 20.8072C144.056 19.9359 144.917 19.5117 146.01 19.5117V18.5117ZM142.592 20.1967C141.734 21.3106 141.34 22.8573 141.34 24.7676H142.34C142.34 22.9774 142.711 21.6803 143.384 20.8072L142.592 20.1967ZM158.328 17.207L158.827 17.185L158.806 16.707H158.328V17.207ZM158.41 19.0664L157.91 19.0884L157.969 20.4242L158.801 19.3775L158.41 19.0664ZM167.57 22.2246L168.07 22.2246L168.07 22.2207L167.57 22.2246ZM167.57 32V32.5H168.07V32H167.57ZM165.041 32H164.541V32.5H165.041V32ZM165.041 22.2109H165.541L165.541 22.2067L165.041 22.2109ZM164.303 19.8457L163.936 20.1859L163.939 20.1894L164.303 19.8457ZM158.465 21.459L158.015 21.24L157.965 21.3437V21.459H158.465ZM158.465 32V32.5H158.965V32H158.465ZM155.935 32H155.435V32.5H155.935V32ZM155.935 17.207V16.707H155.435V17.207H155.935ZM157.828 17.2291L157.91 19.0884L158.909 19.0444L158.827 17.185L157.828 17.2291ZM158.801 19.3775C159.836 18.0755 161.169 17.4336 162.84 17.4336V16.4336C160.865 16.4336 159.244 17.2136 158.019 18.7553L158.801 19.3775ZM162.84 17.4336C164.309 17.4336 165.329 17.8452 165.994 18.5896C166.67 19.3452 167.057 20.5284 167.07 22.2285L168.07 22.2207C168.056 20.3935 167.641 18.9311 166.74 17.9231C165.828 16.9038 164.497 16.4336 162.84 16.4336V17.4336ZM167.07 22.2246V32H168.07V22.2246H167.07ZM167.57 31.5H165.041V32.5H167.57V31.5ZM165.541 32V22.2109H164.541V32H165.541ZM165.541 22.2067C165.531 21.0775 165.271 20.1418 164.666 19.502L163.939 20.1894C164.3 20.5704 164.532 21.2115 164.541 22.2152L165.541 22.2067ZM164.669 19.5055C164.064 18.8544 163.161 18.5801 162.074 18.5801V19.5801C163.01 19.5801 163.593 19.8162 163.936 20.1859L164.669 19.5055ZM162.074 18.5801C161.159 18.5801 160.337 18.8259 159.626 19.3278L160.202 20.1448C160.731 19.7718 161.348 19.5801 162.074 19.5801V18.5801ZM159.626 19.3278C158.934 19.816 158.397 20.4567 158.015 21.24L158.914 21.678C159.225 21.0394 159.654 20.5316 160.202 20.1448L159.626 19.3278ZM157.965 21.459V32H158.965V21.459H157.965ZM158.465 31.5H155.935V32.5H158.465V31.5ZM156.435 32V17.207H155.435V32H156.435ZM155.935 17.707H158.328V16.707H155.935V17.707ZM191.933 14.2539V14.7539H192.433V14.2539H191.933ZM185.535 14.2539V13.7539H185.035V14.2539H185.535ZM185.535 32V32.5H186.035V32H185.535ZM182.924 32H182.424V32.5H182.924V32ZM182.924 14.2539H183.424V13.7539H182.924V14.2539ZM176.539 14.2539H176.039V14.7539H176.539V14.2539ZM176.539 12.0938V11.5938H176.039V12.0938H176.539ZM191.933 12.0938H192.433V11.5938H191.933V12.0938ZM191.933 13.7539H185.535V14.7539H191.933V13.7539ZM185.035 14.2539V32H186.035V14.2539H185.035ZM185.535 31.5H182.924V32.5H185.535V31.5ZM183.424 32V14.2539H182.424V32H183.424ZM182.924 13.7539H176.539V14.7539H182.924V13.7539ZM177.039 14.2539V12.0938H176.039V14.2539H177.039ZM176.539 12.5938H191.933V11.5938H176.539V12.5938ZM191.433 12.0938V14.2539H192.433V12.0938H191.433ZM200.601 19.4766L200.519 19.9698L201.101 20.0668V19.4766H200.601ZM195.98 21.5L195.519 21.3066L195.48 21.3994V21.5H195.98ZM195.98 32V32.5H196.48V32H195.98ZM193.451 32H192.951V32.5H193.451V32ZM193.451 17.207V16.707H192.951V17.207H193.451ZM195.912 17.207L196.412 17.195L196.4 16.707H195.912V17.207ZM195.953 18.916L195.453 18.928L195.493 20.5896L196.376 19.1818L195.953 18.916ZM200.601 17.125H201.101V16.816L200.825 16.6778L200.601 17.125ZM200.684 18.9834C200.27 18.9144 199.827 18.8809 199.357 18.8809V19.8809C199.78 19.8809 200.167 19.9111 200.519 19.9698L200.684 18.9834ZM199.357 18.8809C198.457 18.8809 197.663 19.0729 197.003 19.4871C196.34 19.9031 195.849 20.5202 195.519 21.3066L196.441 21.6934C196.704 21.067 197.072 20.6245 197.535 20.3342C198 20.042 198.599 19.8809 199.357 19.8809V18.8809ZM195.48 21.5V32H196.48V21.5H195.48ZM195.98 31.5H193.451V32.5H195.98V31.5ZM193.951 32V17.207H192.951V32H193.951ZM193.451 17.707H195.912V16.707H193.451V17.707ZM195.412 17.219L195.453 18.928L196.453 18.904L196.412 17.195L195.412 17.219ZM196.376 19.1818C197.117 18.0015 198.135 17.4336 199.48 17.4336V16.4336C197.781 16.4336 196.448 17.1873 195.529 18.6502L196.376 19.1818ZM199.48 17.4336C199.943 17.4336 200.225 17.496 200.378 17.5722L200.825 16.6778C200.467 16.4988 200.001 16.4336 199.48 16.4336V17.4336ZM200.101 17.125V19.4766H201.101V17.125H200.101ZM211.525 32L211.078 32.2236L211.216 32.5H211.525V32ZM211.17 30.4414L211.666 30.3809L211.539 29.3371L210.809 30.0946L211.17 30.4414ZM203.363 31.043L203.03 31.4161L203.034 31.4195L203.363 31.043ZM203.719 24.3164L204.012 24.7209L204.013 24.7205L203.719 24.3164ZM211.129 23.0312V23.5312H211.629V23.0312H211.129ZM210.336 19.7637L209.982 20.1172L209.985 20.1203L210.336 19.7637ZM204.812 21.3086V21.8086H205.312V21.3086H204.812ZM202.269 21.3086H201.769V21.8086H202.269V21.3086ZM203.049 19.1758L202.651 18.8724L202.651 18.8732L203.049 19.1758ZM205.181 17.5352L204.978 17.0782L204.977 17.079L205.181 17.5352ZM212.154 18.2188L211.822 18.5928L211.824 18.5946L212.154 18.2188ZM213.658 21.7324L214.158 21.7324L214.158 21.7202L213.658 21.7324ZM214.178 31.7812H214.678V31.6779L214.637 31.583L214.178 31.7812ZM214.178 32V32.5H214.678V32H214.178ZM211.129 27.8574L211.578 28.076L211.629 27.9725V27.8574H211.129ZM211.129 24.8223H211.629V24.3223H211.129V24.8223ZM211.972 31.7764C211.869 31.569 211.757 31.1264 211.666 30.3809L210.673 30.5019C210.765 31.2512 210.89 31.8477 211.078 32.2236L211.972 31.7764ZM210.809 30.0946C209.724 31.2224 208.449 31.7734 206.959 31.7734V32.7734C208.732 32.7734 210.264 32.1031 211.53 30.7882L210.809 30.0946ZM206.959 31.7734C205.6 31.7734 204.525 31.3939 203.692 30.6665L203.034 31.4195C204.079 32.3326 205.401 32.7734 206.959 32.7734V31.7734ZM203.696 30.6699C202.875 29.9371 202.469 29.0256 202.469 27.8984H201.469C201.469 29.3051 201.992 30.49 203.03 31.4161L203.696 30.6699ZM202.469 27.8984C202.469 26.5054 202.985 25.4672 204.012 24.7209L203.425 23.9119C202.118 24.8609 201.469 26.2108 201.469 27.8984H202.469ZM204.013 24.7205C205.072 23.9488 206.603 23.5312 208.668 23.5312V22.5312C206.485 22.5312 204.717 22.9705 203.424 23.9123L204.013 24.7205ZM208.668 23.5312H211.129V22.5312H208.668V23.5312ZM211.629 23.0312V21.8691H210.629V23.0312H211.629ZM211.629 21.8691C211.629 20.8787 211.329 20.0384 210.686 19.4071L209.985 20.1203C210.4 20.528 210.629 21.0913 210.629 21.8691H211.629ZM210.689 19.4101C210.036 18.7569 209.109 18.4707 207.998 18.4707V19.4707C208.946 19.4707 209.578 19.7132 209.982 20.1172L210.689 19.4101ZM207.998 18.4707C207.008 18.4707 206.141 18.7221 205.429 19.2536L206.027 20.055C206.537 19.675 207.183 19.4707 207.998 19.4707V18.4707ZM205.429 19.2536C204.718 19.7847 204.312 20.4744 204.312 21.3086H205.312C205.312 20.8485 205.518 20.4353 206.027 20.055L205.429 19.2536ZM204.812 20.8086H202.269V21.8086H204.812V20.8086ZM202.769 21.3086C202.769 20.6968 202.982 20.0897 203.447 19.4783L202.651 18.8732C202.076 19.6291 201.769 20.4439 201.769 21.3086H202.769ZM203.446 19.4791C203.918 18.8604 204.559 18.3625 205.386 17.9913L204.977 17.079C204.017 17.5099 203.236 18.1057 202.651 18.8724L203.446 19.4791ZM205.384 17.9921C206.217 17.6219 207.136 17.4336 208.148 17.4336V16.4336C207.009 16.4336 205.95 16.6463 204.978 17.0783L205.384 17.9921ZM208.148 17.4336C209.77 17.4336 210.974 17.8402 211.822 18.5928L212.486 17.8447C211.402 16.8837 209.935 16.4336 208.148 16.4336V17.4336ZM211.824 18.5946C212.668 19.3348 213.124 20.3645 213.158 21.7446L214.158 21.7202C214.119 20.1108 213.572 18.798 212.484 17.8429L211.824 18.5946ZM213.158 21.7324V28.541H214.158V21.7324H213.158ZM213.158 28.541C213.158 29.9334 213.334 31.0898 213.718 31.9795L214.637 31.583C214.328 30.8685 214.158 29.8647 214.158 28.541H213.158ZM213.678 31.7812V32H214.678V31.7812H213.678ZM214.178 31.5H211.525V32.5H214.178V31.5ZM207.328 30.5723C208.212 30.5723 209.049 30.3425 209.834 29.8901L209.334 29.0239C208.696 29.3919 208.03 29.5723 207.328 29.5723V30.5723ZM209.834 29.8901C210.62 29.4365 211.21 28.8331 211.578 28.076L210.679 27.6388C210.409 28.1943 209.97 28.6572 209.334 29.0239L209.834 29.8901ZM211.629 27.8574V24.8223H210.629V27.8574H211.629ZM211.129 24.3223H209.146V25.3223H211.129V24.3223ZM209.146 24.3223C207.564 24.3223 206.296 24.5508 205.407 25.0709C204.477 25.6152 203.998 26.4608 203.998 27.543H204.998C204.998 26.8114 205.293 26.2966 205.913 25.934C206.573 25.5471 207.629 25.3223 209.146 25.3223V24.3223ZM203.998 27.543C203.998 28.4592 204.31 29.2282 204.968 29.7843L205.613 29.0204C205.214 28.6832 204.998 28.2127 204.998 27.543H203.998ZM204.968 29.7843C205.604 30.3216 206.405 30.5723 207.328 30.5723V29.5723C206.592 29.5723 206.035 29.3763 205.613 29.0204L204.968 29.7843ZM227.043 27.3379V26.8379H226.585L226.545 27.2936L227.043 27.3379ZM229.435 27.3379L229.935 27.3647L229.963 26.8379H229.435V27.3379ZM226.4 31.5898L226.175 31.1435L226.173 31.1445L226.4 31.5898ZM218.744 30.2637L218.368 30.5937L218.371 30.5963L218.744 30.2637ZM220.029 17.8633L219.764 17.4391L219.763 17.4402L220.029 17.8633ZM227.672 18.4238L227.335 18.7939L227.337 18.7953L227.672 18.4238ZM229.435 22.293V22.793H229.959L229.935 22.27L229.435 22.293ZM227.043 22.293L226.544 22.331L226.579 22.793H227.043V22.293ZM225.949 19.9414L225.603 20.3025L225.608 20.3074L225.949 19.9414ZM220.549 20.4062L220.151 20.1025L220.151 20.1031L220.549 20.4062ZM223.556 30.709C224.569 30.709 225.469 30.3991 226.237 29.777L225.607 29.0003C225.025 29.472 224.349 29.709 223.556 29.709V30.709ZM226.237 29.777C227.01 29.1501 227.455 28.3452 227.541 27.3822L226.545 27.2936C226.484 27.9712 226.183 28.5334 225.607 29.0003L226.237 29.777ZM227.043 27.8379H229.435V26.8379H227.043V27.8379ZM228.936 27.311C228.896 28.0557 228.641 28.7734 228.151 29.4704L228.969 30.0452C229.555 29.211 229.884 28.3154 229.935 27.3647L228.936 27.311ZM228.151 29.4704C227.664 30.1634 227.01 30.7218 226.175 31.1435L226.626 32.0362C227.595 31.5464 228.381 30.8834 228.969 30.0452L228.151 29.4704ZM226.173 31.1445C225.35 31.5643 224.48 31.7734 223.556 31.7734V32.7734C224.638 32.7734 225.664 32.5268 226.627 32.0352L226.173 31.1445ZM223.556 31.7734C221.665 31.7734 220.204 31.1507 219.117 29.931L218.371 30.5963C219.672 32.0563 221.419 32.7734 223.556 32.7734V31.7734ZM219.12 29.9337C218.036 28.7005 217.467 26.9893 217.467 24.7402H216.467C216.467 27.1578 217.082 29.1289 218.368 30.5936L219.12 29.9337ZM217.467 24.7402V24.3164H216.467V24.7402H217.467ZM217.467 24.3164C217.467 22.9382 217.719 21.7323 218.212 20.6879L217.307 20.2614C216.743 21.4591 216.467 22.8144 216.467 24.3164H217.467ZM218.212 20.6879C218.703 19.6471 219.397 18.852 220.295 18.2864L219.763 17.4402C218.692 18.1141 217.874 19.0599 217.307 20.2614L218.212 20.6879ZM220.294 18.2875C221.196 17.7244 222.273 17.4336 223.543 17.4336V16.4336C222.115 16.4336 220.849 16.7626 219.764 17.4391L220.294 18.2875ZM223.543 17.4336C225.094 17.4336 226.345 17.8944 227.335 18.7939L228.008 18.0537C226.811 16.9662 225.31 16.4336 223.543 16.4336V17.4336ZM227.337 18.7953C228.333 19.6927 228.869 20.8532 228.936 22.3159L229.935 22.27C229.856 20.5608 229.216 19.142 228.006 18.0523L227.337 18.7953ZM229.435 21.793H227.043V22.793H229.435V21.793ZM227.541 22.255C227.46 21.1823 227.045 20.2781 226.29 19.5754L225.608 20.3074C226.166 20.8261 226.48 21.4895 226.544 22.331L227.541 22.255ZM226.295 19.5803C225.548 18.8649 224.619 18.5117 223.543 18.5117V19.5117C224.381 19.5117 225.056 19.7783 225.603 20.3025L226.295 19.5803ZM223.543 18.5117C222.119 18.5117 220.967 19.0358 220.151 20.1025L220.946 20.71C221.552 19.9173 222.396 19.5117 223.543 19.5117V18.5117ZM220.151 20.1031C219.356 21.1453 218.996 22.6058 218.996 24.4121H219.996C219.996 22.7184 220.337 21.5084 220.946 20.7094L220.151 20.1031ZM218.996 24.4121V24.8906H219.996V24.4121H218.996ZM218.996 24.8906C218.996 26.655 219.358 28.091 220.151 29.1313L220.946 28.525C220.336 27.7241 219.996 26.5352 219.996 24.8906H218.996ZM220.151 29.1313C220.96 30.1927 222.12 30.709 223.556 30.709V29.709C222.387 29.709 221.541 29.3047 220.946 28.525L220.151 29.1313ZM236.408 25.1504L236.808 24.8498L236.454 24.3799L236.047 24.8044L236.408 25.1504ZM234.822 26.8047L234.461 26.4587L234.322 26.6037V26.8047H234.822ZM234.822 32V32.5H235.322V32H234.822ZM232.293 32H231.793V32.5H232.293V32ZM232.293 11V10.5H231.793V11H232.293ZM234.822 11H235.322V10.5H234.822V11ZM234.822 23.7012H234.322V25.084L235.206 24.0209L234.822 23.7012ZM236.176 22.0742L235.812 21.7305L235.801 21.7421L235.791 21.7544L236.176 22.0742ZM240.783 17.207V16.707H240.568L240.42 16.8633L240.783 17.207ZM243.859 17.207L244.225 17.5478L245.008 16.707H243.859V17.207ZM238.103 23.3867L237.737 23.0459L237.453 23.3513L237.703 23.6857L238.103 23.3867ZM244.529 32V32.5H245.526L244.93 31.701L244.529 32ZM241.562 32L241.163 32.3006L241.313 32.5H241.562V32ZM236.047 24.8044L234.461 26.4587L235.183 27.1507L236.769 25.4964L236.047 24.8044ZM234.322 26.8047V32H235.322V26.8047H234.322ZM234.822 31.5H232.293V32.5H234.822V31.5ZM232.793 32V11H231.793V32H232.793ZM232.293 11.5H234.822V10.5H232.293V11.5ZM234.322 11V23.7012H235.322V11H234.322ZM235.206 24.0209L236.56 22.394L235.791 21.7544L234.438 23.3814L235.206 24.0209ZM236.539 22.4179L241.146 17.5508L240.42 16.8633L235.812 21.7305L236.539 22.4179ZM240.783 17.707H243.859V16.707H240.783V17.707ZM243.493 16.8662L237.737 23.0459L238.469 23.7275L244.225 17.5478L243.493 16.8662ZM237.703 23.6857L244.128 32.299L244.93 31.701L238.504 23.0877L237.703 23.6857ZM244.529 31.5H241.562V32.5H244.529V31.5ZM241.962 31.6994L236.808 24.8498L236.008 25.451L241.163 32.3006L241.962 31.6994ZM247.441 30.3047L247.079 30.6494L247.08 30.6506L247.441 30.3047ZM246.388 20.625L245.939 20.4056L245.938 20.4071L246.388 20.625ZM248.74 17.918L249.011 18.3381L249.012 18.3374L248.74 17.918ZM256.506 18.834L256.123 19.156L256.506 18.834ZM258.105 25.3281V25.8281H258.605V25.3281H258.105ZM248.084 25.3281V24.8281H247.571L247.584 25.3406L248.084 25.3281ZM249.355 28.8691L248.983 29.2034L248.987 29.2073L249.355 28.8691ZM256.369 28.2129L256.676 27.8184L256.28 27.51L255.973 27.9072L256.369 28.2129ZM257.914 29.416L258.333 29.6887L258.583 29.3037L258.221 29.0215L257.914 29.416ZM249.451 20.1328L249.816 20.4749L249.818 20.4727L249.451 20.1328ZM248.166 23.25L247.67 23.1892L247.601 23.75H248.166V23.25ZM255.576 23.25V23.75H256.076V23.25H255.576ZM255.576 23.0586H256.076V23.0444L256.075 23.0303L255.576 23.0586ZM254.537 20.0781L254.16 20.4067L254.162 20.4091L254.537 20.0781ZM252.336 31.7734C250.451 31.7734 248.955 31.1622 247.802 29.9587L247.08 30.6506C248.443 32.0722 250.21 32.7734 252.336 32.7734V31.7734ZM247.803 29.96C246.652 28.7501 246.054 27.1195 246.054 25.0137H245.054C245.054 27.3193 245.715 29.2161 247.079 30.6494L247.803 29.96ZM246.054 25.0137V24.5488H245.054V25.0137H246.054ZM246.054 24.5488C246.054 23.1455 246.32 21.9139 246.838 20.8429L245.938 20.4071C245.345 21.633 245.054 23.0172 245.054 24.5488H246.054ZM246.838 20.8444C247.366 19.762 248.091 18.9319 249.011 18.3381L248.469 17.4979C247.384 18.1984 246.541 19.1729 245.939 20.4056L246.838 20.8444ZM249.012 18.3374C249.945 17.7323 250.945 17.4336 252.021 17.4336V16.4336C250.746 16.4336 249.558 16.7911 248.468 17.4985L249.012 18.3374ZM252.021 17.4336C253.823 17.4336 255.168 18.0207 256.123 19.156L256.888 18.512C255.711 17.1134 254.065 16.4336 252.021 16.4336V17.4336ZM256.123 19.156C257.087 20.3011 257.605 21.9832 257.605 24.2754H258.605C258.605 21.8462 258.057 19.9007 256.888 18.512L256.123 19.156ZM257.605 24.2754V25.3281H258.605V24.2754H257.605ZM258.105 24.8281H248.084V25.8281H258.105V24.8281ZM247.584 25.3406C247.623 26.8929 248.077 28.1954 248.983 29.2034L249.727 28.5349C249.011 27.7382 248.618 26.6801 248.584 25.3156L247.584 25.3406ZM248.987 29.2073C249.906 30.2079 251.081 30.709 252.472 30.709V29.709C251.349 29.709 250.445 29.3168 249.724 28.5309L248.987 29.2073ZM252.472 30.709C253.433 30.709 254.282 30.5126 254.995 30.0931L254.488 29.2311C253.962 29.5408 253.298 29.709 252.472 29.709V30.709ZM254.995 30.0931C255.673 29.6944 256.263 29.1677 256.765 28.5186L255.973 27.9072C255.545 28.4612 255.05 28.9007 254.488 29.2311L254.995 30.0931ZM256.062 28.6074L257.607 29.8105L258.221 29.0215L256.676 27.8184L256.062 28.6074ZM257.495 29.1433C256.357 30.8918 254.664 31.7734 252.336 31.7734V32.7734C254.966 32.7734 256.992 31.7501 258.333 29.6887L257.495 29.1433ZM252.021 18.5117C250.862 18.5117 249.872 18.9432 249.084 19.7929L249.818 20.4727C250.416 19.8276 251.139 19.5117 252.021 19.5117V18.5117ZM249.086 19.7907C248.3 20.6285 247.842 21.7788 247.67 23.1892L248.662 23.3108C248.818 22.0415 249.216 21.1136 249.816 20.4749L249.086 19.7907ZM248.166 23.75H255.576V22.75H248.166V23.75ZM256.076 23.25V23.0586H255.076V23.25H256.076ZM256.075 23.0303C255.998 21.6746 255.629 20.5596 254.912 19.7472L254.162 20.4091C254.684 21.0003 255.008 21.8723 255.077 23.0869L256.075 23.0303ZM254.914 19.7496C254.187 18.9158 253.204 18.5117 252.021 18.5117V19.5117C252.954 19.5117 253.647 19.8186 254.16 20.4067L254.914 19.7496ZM268.195 19.4766L268.113 19.9698L268.695 20.0668V19.4766H268.195ZM263.574 21.5L263.113 21.3066L263.074 21.3994V21.5H263.574ZM263.574 32V32.5H264.074V32H263.574ZM261.045 32H260.545V32.5H261.045V32ZM261.045 17.207V16.707H260.545V17.207H261.045ZM263.506 17.207L264.006 17.195L263.994 16.707H263.506V17.207ZM263.547 18.916L263.047 18.928L263.087 20.5896L263.97 19.1818L263.547 18.916ZM268.195 17.125H268.695V16.816L268.419 16.6778L268.195 17.125ZM268.277 18.9834C267.864 18.9144 267.421 18.8809 266.951 18.8809V19.8809C267.374 19.8809 267.761 19.9111 268.113 19.9698L268.277 18.9834ZM266.951 18.8809C266.051 18.8809 265.257 19.0729 264.597 19.4871C263.934 19.9031 263.443 20.5202 263.113 21.3066L264.035 21.6934C264.298 21.067 264.666 20.6245 265.128 20.3342C265.594 20.042 266.192 19.8809 266.951 19.8809V18.8809ZM263.074 21.5V32H264.074V21.5H263.074ZM263.574 31.5H261.045V32.5H263.574V31.5ZM261.545 32V17.207H260.545V32H261.545ZM261.045 17.707H263.506V16.707H261.045V17.707ZM263.006 17.219L263.047 18.928L264.047 18.904L264.006 17.195L263.006 17.219ZM263.97 19.1818C264.711 18.0015 265.729 17.4336 267.074 17.4336V16.4336C265.375 16.4336 264.041 17.1873 263.123 18.6502L263.97 19.1818ZM267.074 17.4336C267.537 17.4336 267.819 17.496 267.971 17.5722L268.419 16.6778C268.061 16.4988 267.595 16.4336 267.074 16.4336V17.4336ZM267.695 17.125V19.4766H268.695V17.125H267.695Z" fill="black"/>
</g>
<defs>
<filter id="filter0_d" x="54.8709" y="10.5" width="217.824" height="30.2734" filterUnits="userSpaceOnUse" color-interpolation-filters="sRGB">
<feFlood flood-opacity="0" result="BackgroundImageFix"/>
<feColorMatrix in="SourceAlpha" type="matrix" values="0 0 0 0 0 0 0 0 0 0 0 0 0 0 0 0 0 0 127 0"/>
<feOffset dy="4"/>
<feGaussianBlur stdDeviation="2"/>
<feColorMatrix type="matrix" values="0 0 0 0 0 0 0 0 0 0 0 0 0 0 0 0 0 0 0.15 0"/>
<feBlend mode="normal" in2="BackgroundImageFix" result="effect1_dropShadow"/>
<feBlend mode="normal" in="SourceGraphic" in2="effect1_dropShadow" result="shape"/>
</filter>
<clipPath id="clip0">
<rect width="48" height="48" fill="white"/>
</clipPath>
</defs>
</svg>
