<?xml version="1.0" encoding="UTF-8"?>
<svg xmlns="http://www.w3.org/2000/svg" xmlns:xlink="http://www.w3.org/1999/xlink" width="251pt" height="251pt" viewBox="0 0 251 251" version="1.1">
<g id="surface1">
<path style=" stroke:none;fill-rule:nonzero;fill:rgb(0%,0%,0%);fill-opacity:1;" d="M 246 43.992188 L 229.480469 43.992188 L 229.480469 42.296875 C 229.480469 40.921875 228.914062 39.605469 227.914062 38.660156 C 226.910156 37.714844 225.558594 37.226562 224.191406 37.304688 L 125.5 43.027344 L 26.808594 37.304688 C 25.433594 37.226562 24.085938 37.714844 23.085938 38.660156 C 22.085938 39.605469 21.519531 40.921875 21.519531 42.296875 L 21.519531 43.992188 L 5 43.992188 C 2.238281 43.992188 0 46.230469 0 48.992188 L 0 208.703125 C 0 211.464844 2.238281 213.703125 5 213.703125 L 246 213.703125 C 248.761719 213.703125 251 211.464844 251 208.703125 L 251 48.992188 C 251 46.230469 248.761719 43.992188 246 43.992188 Z M 130.5 52.753906 L 219.480469 47.597656 L 219.480469 184.855469 L 130.5 190.015625 Z M 31.519531 47.597656 L 120.5 52.753906 L 120.5 190.015625 L 31.519531 184.855469 Z M 241 203.703125 L 10 203.703125 L 10 53.992188 L 21.519531 53.992188 L 21.519531 189.574219 C 21.519531 192.222656 23.585938 194.414062 26.226562 194.566406 L 125.210938 200.304688 C 125.308594 200.308594 125.402344 200.3125 125.496094 200.3125 C 125.5 200.3125 125.5 200.3125 125.5 200.3125 C 125.5 200.3125 125.5 200.3125 125.503906 200.3125 C 125.597656 200.3125 125.695312 200.308594 125.789062 200.304688 L 224.773438 194.566406 C 227.414062 194.414062 229.480469 192.222656 229.480469 189.574219 L 229.480469 53.992188 L 241 53.992188 Z M 241 203.703125 "/>
<path style=" stroke:none;fill-rule:nonzero;fill:rgb(0%,0%,0%);fill-opacity:1;" d="M 107.140625 65.039062 L 72.234375 63.015625 C 69.476562 62.851562 67.113281 64.960938 66.953125 67.71875 C 66.792969 70.476562 68.898438 72.839844 71.65625 73 L 106.5625 75.023438 C 106.660156 75.03125 106.757812 75.03125 106.855469 75.03125 C 109.484375 75.03125 111.6875 72.980469 111.84375 70.320312 C 112.003906 67.566406 109.898438 65.199219 107.140625 65.039062 Z M 107.140625 65.039062 "/>
<path style=" stroke:none;fill-rule:nonzero;fill:rgb(0%,0%,0%);fill-opacity:1;" d="M 46.3125 71.53125 L 54.917969 72.03125 C 55.015625 72.035156 55.117188 72.039062 55.214844 72.039062 C 57.84375 72.039062 60.046875 69.984375 60.199219 67.328125 C 60.359375 64.570312 58.253906 62.207031 55.5 62.046875 L 46.890625 61.546875 C 44.121094 61.386719 41.769531 63.492188 41.609375 66.25 C 41.449219 69.007812 43.554688 71.371094 46.3125 71.53125 Z M 46.3125 71.53125 "/>
<path style=" stroke:none;fill-rule:nonzero;fill:rgb(0%,0%,0%);fill-opacity:1;" d="M 107.140625 87.992188 L 46.890625 84.5 C 44.121094 84.339844 41.769531 86.445312 41.609375 89.203125 C 41.449219 91.957031 43.554688 94.324219 46.3125 94.484375 L 106.5625 97.976562 C 106.660156 97.980469 106.757812 97.984375 106.855469 97.984375 C 109.484375 97.984375 111.6875 95.933594 111.84375 93.273438 C 112.003906 90.515625 109.898438 88.152344 107.140625 87.992188 Z M 107.140625 87.992188 "/>
<path style=" stroke:none;fill-rule:nonzero;fill:rgb(0%,0%,0%);fill-opacity:1;" d="M 107.140625 111.421875 L 46.890625 107.929688 C 44.121094 107.773438 41.769531 109.875 41.609375 112.632812 C 41.449219 115.390625 43.554688 117.753906 46.3125 117.914062 L 106.5625 121.40625 C 106.660156 121.410156 106.757812 121.414062 106.855469 121.414062 C 109.484375 121.414062 111.6875 119.363281 111.84375 116.703125 C 112.003906 113.945312 109.898438 111.582031 107.140625 111.421875 Z M 107.140625 111.421875 "/>
<path style=" stroke:none;fill-rule:nonzero;fill:rgb(0%,0%,0%);fill-opacity:1;" d="M 107.140625 134.375 L 46.890625 130.882812 C 44.121094 130.722656 41.769531 132.828125 41.609375 135.585938 C 41.449219 138.34375 43.554688 140.707031 46.3125 140.867188 L 106.5625 144.359375 C 106.660156 144.363281 106.757812 144.367188 106.855469 144.367188 C 109.484375 144.367188 111.6875 142.316406 111.84375 139.65625 C 112.003906 136.898438 109.898438 134.535156 107.140625 134.375 Z M 107.140625 134.375 "/>
<path style=" stroke:none;fill-rule:nonzero;fill:rgb(0%,0%,0%);fill-opacity:1;" d="M 205.066406 130.882812 L 167.769531 133.042969 C 165.011719 133.203125 162.90625 135.570312 163.066406 138.324219 C 163.21875 140.984375 165.425781 143.035156 168.054688 143.035156 C 168.152344 143.035156 168.25 143.035156 168.347656 143.027344 L 205.644531 140.867188 C 208.402344 140.707031 210.507812 138.339844 210.347656 135.585938 C 210.1875 132.828125 207.84375 130.722656 205.066406 130.882812 Z M 205.066406 130.882812 "/>
<path style=" stroke:none;fill-rule:nonzero;fill:rgb(0%,0%,0%);fill-opacity:1;" d="M 152.945312 133.902344 L 144.816406 134.375 C 142.058594 134.535156 139.953125 136.898438 140.113281 139.65625 C 140.269531 142.316406 142.472656 144.367188 145.101562 144.367188 C 145.199219 144.367188 145.296875 144.363281 145.394531 144.359375 L 153.523438 143.886719 C 156.28125 143.726562 158.386719 141.363281 158.226562 138.605469 C 158.066406 135.851562 155.707031 133.742188 152.945312 133.902344 Z M 152.945312 133.902344 "/>
<path style=" stroke:none;fill-rule:nonzero;fill:rgb(0%,0%,0%);fill-opacity:1;" d="M 205.066406 107.929688 L 144.816406 111.421875 C 142.058594 111.582031 139.953125 113.945312 140.113281 116.703125 C 140.269531 119.363281 142.472656 121.414062 145.101562 121.414062 C 145.199219 121.414062 145.296875 121.410156 145.394531 121.40625 L 205.644531 117.914062 C 208.402344 117.753906 210.507812 115.390625 210.347656 112.632812 C 210.1875 109.875 207.84375 107.773438 205.066406 107.929688 Z M 205.066406 107.929688 "/>
<path style=" stroke:none;fill-rule:nonzero;fill:rgb(0%,0%,0%);fill-opacity:1;" d="M 205.066406 84.5 L 144.816406 87.992188 C 142.058594 88.152344 139.953125 90.515625 140.113281 93.273438 C 140.269531 95.929688 142.472656 97.984375 145.101562 97.984375 C 145.199219 97.984375 145.296875 97.980469 145.394531 97.976562 L 205.644531 94.484375 C 208.402344 94.324219 210.507812 91.957031 210.347656 89.203125 C 210.1875 86.445312 207.84375 84.335938 205.066406 84.5 Z M 205.066406 84.5 "/>
<path style=" stroke:none;fill-rule:nonzero;fill:rgb(0%,0%,0%);fill-opacity:1;" d="M 205.066406 61.546875 L 144.816406 65.039062 C 142.058594 65.199219 139.953125 67.5625 140.113281 70.320312 C 140.269531 72.980469 142.472656 75.03125 145.101562 75.03125 C 145.199219 75.03125 145.296875 75.027344 145.394531 75.023438 L 205.644531 71.53125 C 208.402344 71.371094 210.507812 69.007812 210.347656 66.25 C 210.1875 63.492188 207.84375 61.386719 205.066406 61.546875 Z M 205.066406 61.546875 "/>
</g>
</svg>
