<svg width="278" height="44" viewBox="0 0 278 44" fill="none" xmlns="http://www.w3.org/2000/svg">
<g filter="url(#filter0_d)">
<path d="M52.0703 2.52735H48.9102V2.20313C48.9102 1.93751 48.8008 1.68751 48.6094 1.50782C48.418 1.32423 48.1563 1.23438 47.8945 1.2461L29.0117 2.34376L10.1289 1.2461C9.86719 1.23438 9.60938 1.32423 9.41797 1.50782C9.22656 1.68751 9.11719 1.93751 9.11719 2.20313V2.52735H5.95703C5.42969 2.52735 5 2.95313 5 3.48438V34.043C5 34.5703 5.42969 35 5.95703 35H52.0703C52.5977 35 53.0273 34.5703 53.0273 34.043V3.48438C53.0273 2.95313 52.5977 2.52735 52.0703 2.52735ZM29.9688 4.20313L46.9961 3.21485V29.4805L29.9688 30.4649V4.20313ZM11.0312 3.21485L28.0547 4.20313V30.4649L11.0312 29.4805V3.21485ZM51.1133 33.0859H6.91406V4.44141H9.11719V30.3828C9.11719 30.8906 9.51172 31.3086 10.0195 31.3359L28.957 32.4336C28.9766 32.4375 28.9961 32.4375 29.0117 32.4375C29.0312 32.4375 29.0508 32.4375 29.0664 32.4336L48.0078 31.3359C48.5117 31.3086 48.9102 30.8906 48.9102 30.3828V4.44141H51.1133V33.0859Z" fill="black"/>
<path d="M25.5 6.55469L18.8203 6.16798C18.293 6.13673 17.8398 6.53907 17.8086 7.06641C17.7812 7.59376 18.1836 8.04688 18.7109 8.07813L25.3906 8.46485C25.4062 8.46485 25.4258 8.46485 25.4453 8.46485C25.9492 8.46485 26.3711 8.07423 26.3984 7.56251C26.4297 7.03516 26.0273 6.58594 25.5 6.55469Z" fill="black"/>
<path d="M13.8594 7.79688L15.5078 7.89063C15.5273 7.89063 15.5469 7.89454 15.5625 7.89454C16.0664 7.89454 16.4883 7.50001 16.5195 6.99219C16.5508 6.46485 16.1484 6.01173 15.6172 5.98048L13.9727 5.88673C13.4414 5.85548 12.9922 6.25782 12.9609 6.78516C12.9297 7.31251 13.332 7.76563 13.8594 7.79688Z" fill="black"/>
<path d="M25.5 10.9453L13.9727 10.2774C13.4414 10.2461 12.9922 10.6484 12.9609 11.1758C12.9297 11.7031 13.332 12.1563 13.8594 12.1875L25.3906 12.8555C25.4062 12.8555 25.4258 12.8555 25.4453 12.8555C25.9492 12.8555 26.3711 12.4649 26.3984 11.957C26.4297 11.4297 26.0273 10.9766 25.5 10.9453Z" fill="black"/>
<path d="M25.5 15.4297L13.9727 14.7617C13.4414 14.7305 12.9922 15.1328 12.9609 15.6602C12.9297 16.1875 13.332 16.6406 13.8594 16.6719L25.3906 17.3399C25.4062 17.3399 25.4258 17.3399 25.4453 17.3399C25.9492 17.3399 26.3711 16.9492 26.3984 16.4375C26.4297 15.9102 26.0273 15.4609 25.5 15.4297Z" fill="black"/>
<path d="M25.5 19.8203L13.9727 19.1524C13.4414 19.1211 12.9922 19.5234 12.9609 20.0508C12.9297 20.5781 13.332 21.0313 13.8594 21.0625L25.3906 21.7305C25.4062 21.7305 25.4258 21.7305 25.4453 21.7305C25.9492 21.7305 26.3711 21.3399 26.3984 20.832C26.4297 20.3047 26.0273 19.8516 25.5 19.8203Z" fill="black"/>
<path d="M44.2383 19.1524L37.1016 19.5664C36.5742 19.5977 36.168 20.0508 36.1992 20.5781C36.2305 21.0859 36.6523 21.4766 37.1562 21.4766C37.1719 21.4766 37.1914 21.4766 37.2109 21.4766L44.3477 21.0625C44.875 21.0313 45.2773 20.5781 45.2461 20.0508C45.2148 19.5234 44.7695 19.1211 44.2383 19.1524Z" fill="black"/>
<path d="M34.2656 19.7305L32.707 19.8203C32.1797 19.8516 31.7773 20.3047 31.8086 20.832C31.8398 21.3399 32.2617 21.7305 32.7617 21.7305C32.7812 21.7305 32.8008 21.7305 32.8203 21.7305L34.375 21.6406C34.9023 21.6094 35.3047 21.1563 35.2734 20.6289C35.2422 20.1016 34.793 19.6992 34.2656 19.7305Z" fill="black"/>
<path d="M44.2383 14.7617L32.707 15.4297C32.1797 15.457 31.7773 15.9102 31.8086 16.4375C31.8398 16.9492 32.2617 17.3399 32.7617 17.3399C32.7812 17.3399 32.8008 17.3399 32.8203 17.3399L44.3477 16.6719C44.875 16.6406 45.2773 16.1875 45.2461 15.6602C45.2148 15.1328 44.7695 14.7305 44.2383 14.7617Z" fill="black"/>
<path d="M44.2383 10.2774L32.707 10.9453C32.1797 10.9766 31.7773 11.4297 31.8086 11.957C31.8398 12.4649 32.2617 12.8555 32.7617 12.8555C32.7812 12.8555 32.8008 12.8555 32.8203 12.8555L44.3477 12.1875C44.875 12.1563 45.2773 11.7031 45.2461 11.1758C45.2148 10.6484 44.7695 10.2461 44.2383 10.2774Z" fill="black"/>
<path d="M44.2383 5.88673L32.707 6.55469C32.1797 6.58594 31.7773 7.03516 31.8086 7.56251C31.8398 8.07423 32.2617 8.46485 32.7617 8.46485C32.7812 8.46485 32.8008 8.46485 32.8203 8.46485L44.3477 7.79688C44.875 7.76563 45.2773 7.31251 45.2461 6.78516C45.2148 6.25782 44.7695 5.85548 44.2383 5.88673Z" fill="black"/>
<path d="M64.3709 26.1094V6.20313H69.99C71.7218 6.20313 73.253 6.58595 74.5838 7.35157C75.9145 8.1172 76.9399 9.20639 77.6599 10.6191C78.3891 12.0319 78.7582 13.6543 78.7674 15.4863V16.7578C78.7674 18.6354 78.4028 20.2806 77.6736 21.6934C76.9536 23.1061 75.9191 24.1908 74.5701 24.9473C73.2303 25.7038 71.6671 26.0912 69.8806 26.1094H64.3709ZM66.9959 8.36329V23.9629H69.7576C71.781 23.9629 73.3533 23.334 74.4744 22.0762C75.6046 20.8184 76.1697 19.0274 76.1697 16.7031V15.541C76.1697 13.2806 75.6365 11.5261 74.5701 10.2774C73.5128 9.01954 72.0089 8.38152 70.0584 8.36329H66.9959Z" fill="black"/>
<path d="M81.6795 18.5762C81.6795 17.127 81.962 15.8236 82.5271 14.666C83.1013 13.5085 83.8943 12.6152 84.906 11.9863C85.9269 11.3574 87.089 11.043 88.3924 11.043C90.4067 11.043 92.0336 11.7402 93.2732 13.1348C94.5219 14.5293 95.1463 16.3841 95.1463 18.6992V18.877C95.1463 20.3171 94.8683 21.6113 94.3123 22.7598C93.7654 23.8991 92.977 24.7878 91.9471 25.4258C90.9262 26.0638 89.7504 26.3828 88.4197 26.3828C86.4145 26.3828 84.7875 25.6856 83.5388 24.291C82.2993 22.8965 81.6795 21.0508 81.6795 18.7539V18.5762ZM84.2224 18.877C84.2224 20.5176 84.6007 21.8346 85.3572 22.8281C86.1228 23.8216 87.1437 24.3184 88.4197 24.3184C89.7049 24.3184 90.7257 23.8171 91.4822 22.8145C92.2387 21.8027 92.617 20.39 92.617 18.5762C92.617 16.9538 92.2296 15.6413 91.4549 14.6387C90.6892 13.627 89.6684 13.1211 88.3924 13.1211C87.1437 13.1211 86.1365 13.6178 85.3709 14.6113C84.6053 15.6048 84.2224 17.0267 84.2224 18.877Z" fill="black"/>
<path d="M100.711 11.3164L100.793 13.1758C101.923 11.7539 103.4 11.043 105.222 11.043C108.349 11.043 109.926 12.8066 109.953 16.334V26.1094H107.424V16.3203C107.414 15.2539 107.168 14.4655 106.685 13.9551C106.211 13.4447 105.469 13.1895 104.457 13.1895C103.637 13.1895 102.916 13.4082 102.297 13.8457C101.677 14.2832 101.194 14.8574 100.847 15.5684V26.1094H98.3181V11.3164H100.711Z" fill="black"/>
<path d="M122.9 26.1094C122.754 25.8177 122.636 25.2982 122.545 24.5508C121.369 25.7721 119.965 26.3828 118.334 26.3828C116.875 26.3828 115.677 25.9727 114.738 25.1524C113.808 24.3229 113.344 23.2747 113.344 22.0078C113.344 20.4675 113.927 19.2734 115.094 18.4258C116.269 17.569 117.919 17.1406 120.043 17.1406H122.504V15.9785C122.504 15.0944 122.239 14.3926 121.711 13.8731C121.182 13.3444 120.403 13.0801 119.373 13.0801C118.47 13.0801 117.714 13.308 117.103 13.7637C116.493 14.2194 116.187 14.7708 116.187 15.418H113.644C113.644 14.6797 113.904 13.9688 114.424 13.2852C114.952 12.5925 115.663 12.0456 116.556 11.6445C117.459 11.2435 118.448 11.043 119.523 11.043C121.228 11.043 122.563 11.4714 123.529 12.3281C124.495 13.1758 124.997 14.347 125.033 15.8418V22.6504C125.033 24.0085 125.206 25.0885 125.553 25.8906V26.1094H122.9ZM118.703 24.1816C119.496 24.1816 120.248 23.9766 120.959 23.5664C121.67 23.1563 122.185 22.6231 122.504 21.9668V18.9316H120.521C117.422 18.9316 115.873 19.8385 115.873 21.6524C115.873 22.4453 116.137 23.0651 116.666 23.5117C117.194 23.9583 117.873 24.1816 118.703 24.1816Z" fill="black"/>
<path d="M132.429 7.73438V11.3164H135.191V13.2715H132.429V22.4453C132.429 23.0378 132.553 23.4844 132.799 23.7852C133.045 24.0768 133.464 24.2227 134.056 24.2227C134.348 24.2227 134.749 24.168 135.26 24.0586V26.1094C134.594 26.2917 133.947 26.3828 133.318 26.3828C132.188 26.3828 131.336 26.041 130.762 25.3574C130.187 24.6738 129.9 23.7031 129.9 22.4453V13.2715H127.207V11.3164H129.9V7.73438H132.429Z" fill="black"/>
<path d="M140.906 26.1094H138.377V11.3164H140.906V26.1094ZM138.172 7.39259C138.172 6.98243 138.295 6.63608 138.541 6.35352C138.796 6.07097 139.17 5.9297 139.662 5.9297C140.154 5.9297 140.528 6.07097 140.783 6.35352C141.038 6.63608 141.166 6.98243 141.166 7.39259C141.166 7.80274 141.038 8.14454 140.783 8.41798C140.528 8.69141 140.154 8.82813 139.662 8.82813C139.17 8.82813 138.796 8.69141 138.541 8.41798C138.295 8.14454 138.172 7.80274 138.172 7.39259Z" fill="black"/>
<path d="M144.297 18.5762C144.297 17.127 144.579 15.8236 145.144 14.666C145.719 13.5085 146.512 12.6152 147.523 11.9863C148.544 11.3574 149.706 11.043 151.01 11.043C153.024 11.043 154.651 11.7402 155.89 13.1348C157.139 14.5293 157.763 16.3841 157.763 18.6992V18.877C157.763 20.3171 157.485 21.6113 156.929 22.7598C156.383 23.8991 155.594 24.7878 154.564 25.4258C153.543 26.0638 152.368 26.3828 151.037 26.3828C149.032 26.3828 147.405 25.6856 146.156 24.291C144.916 22.8965 144.297 21.0508 144.297 18.7539V18.5762ZM146.84 18.877C146.84 20.5176 147.218 21.8346 147.974 22.8281C148.74 23.8216 149.761 24.3184 151.037 24.3184C152.322 24.3184 153.343 23.8171 154.099 22.8145C154.856 21.8027 155.234 20.39 155.234 18.5762C155.234 16.9538 154.847 15.6413 154.072 14.6387C153.306 13.627 152.286 13.1211 151.01 13.1211C149.761 13.1211 148.754 13.6178 147.988 14.6113C147.222 15.6048 146.84 17.0267 146.84 18.877Z" fill="black"/>
<path d="M163.328 11.3164L163.41 13.1758C164.54 11.7539 166.017 11.043 167.84 11.043C170.966 11.043 172.543 12.8066 172.57 16.334V26.1094H170.041V16.3203C170.032 15.2539 169.786 14.4655 169.303 13.9551C168.829 13.4447 168.086 13.1895 167.074 13.1895C166.254 13.1895 165.534 13.4082 164.914 13.8457C164.294 14.2832 163.811 14.8574 163.465 15.5684V26.1094H160.935V11.3164H163.328Z" fill="black"/>
<path d="M196.933 8.36329H190.535V26.1094H187.924V8.36329H181.539V6.20313H196.933V8.36329Z" fill="black"/>
<path d="M205.601 13.5859C205.219 13.5221 204.804 13.4902 204.357 13.4902C202.698 13.4902 201.573 14.1966 200.98 15.6094V26.1094H198.451V11.3164H200.912L200.953 13.0254C201.782 11.7038 202.958 11.043 204.48 11.043C204.972 11.043 205.346 11.1068 205.601 11.2344V13.5859Z" fill="black"/>
<path d="M216.525 26.1094C216.379 25.8177 216.261 25.2982 216.17 24.5508C214.994 25.7721 213.59 26.3828 211.959 26.3828C210.5 26.3828 209.302 25.9727 208.363 25.1524C207.433 24.3229 206.969 23.2747 206.969 22.0078C206.969 20.4675 207.552 19.2734 208.719 18.4258C209.894 17.569 211.544 17.1406 213.668 17.1406H216.129V15.9785C216.129 15.0944 215.864 14.3926 215.336 13.8731C214.807 13.3444 214.028 13.0801 212.998 13.0801C212.095 13.0801 211.339 13.308 210.728 13.7637C210.118 14.2194 209.812 14.7708 209.812 15.418H207.269C207.269 14.6797 207.529 13.9688 208.049 13.2852C208.577 12.5925 209.288 12.0456 210.181 11.6445C211.084 11.2435 212.073 11.043 213.148 11.043C214.853 11.043 216.188 11.4714 217.154 12.3281C218.12 13.1758 218.622 14.347 218.658 15.8418V22.6504C218.658 24.0085 218.831 25.0885 219.178 25.8906V26.1094H216.525ZM212.328 24.1816C213.121 24.1816 213.873 23.9766 214.584 23.5664C215.295 23.1563 215.81 22.6231 216.129 21.9668V18.9316H214.146C211.047 18.9316 209.498 19.8385 209.498 21.6524C209.498 22.4453 209.762 23.0651 210.291 23.5117C210.819 23.9583 211.498 24.1816 212.328 24.1816Z" fill="black"/>
<path d="M228.556 24.3184C229.459 24.3184 230.247 24.0449 230.922 23.4981C231.596 22.9512 231.97 22.2676 232.043 21.4473H234.435C234.39 22.2949 234.098 23.1016 233.56 23.8672C233.023 24.6328 232.303 25.2435 231.4 25.6992C230.507 26.155 229.559 26.3828 228.556 26.3828C226.542 26.3828 224.938 25.7129 223.744 24.3731C222.559 23.0241 221.967 21.183 221.967 18.8496V18.4258C221.967 16.9857 222.231 15.7051 222.76 14.584C223.288 13.4629 224.045 12.5925 225.029 11.9727C226.023 11.3529 227.194 11.043 228.543 11.043C230.202 11.043 231.578 11.5397 232.672 12.5332C233.775 13.5267 234.362 14.8164 234.435 16.4024H232.043C231.97 15.4453 231.605 14.6615 230.949 14.0508C230.302 13.431 229.5 13.1211 228.543 13.1211C227.258 13.1211 226.26 13.5859 225.549 14.5156C224.847 15.4362 224.496 16.7715 224.496 18.5215V19C224.496 20.7044 224.847 22.0169 225.549 22.9375C226.25 23.8581 227.253 24.3184 228.556 24.3184Z" fill="black"/>
<path d="M241.408 19.2598L239.822 20.9141V26.1094H237.293V5.10938H239.822V17.8106L241.176 16.1836L245.783 11.3164H248.859L243.103 17.4961L249.529 26.1094H246.562L241.408 19.2598Z" fill="black"/>
<path d="M257.336 26.3828C255.331 26.3828 253.699 25.7266 252.441 24.4141C251.183 23.0925 250.554 21.3288 250.554 19.1231V18.6582C250.554 17.1908 250.832 15.8828 251.388 14.7344C251.954 13.5768 252.737 12.6745 253.74 12.0274C254.752 11.3711 255.845 11.043 257.021 11.043C258.944 11.043 260.439 11.6764 261.506 12.9434C262.572 14.2103 263.105 16.0241 263.105 18.3848V19.4375H253.084C253.12 20.8958 253.544 22.0762 254.355 22.9785C255.176 23.8718 256.215 24.3184 257.472 24.3184C258.366 24.3184 259.122 24.1361 259.742 23.7715C260.362 23.4069 260.904 22.9238 261.369 22.3223L262.914 23.5254C261.674 25.4303 259.815 26.3828 257.336 26.3828ZM257.021 13.1211C256 13.1211 255.144 13.4948 254.451 14.2422C253.758 14.9805 253.33 16.0195 253.166 17.3594H260.576V17.168C260.503 15.8828 260.157 14.8893 259.537 14.1875C258.917 13.4766 258.079 13.1211 257.021 13.1211Z" fill="black"/>
<path d="M273.195 13.5859C272.812 13.5221 272.398 13.4902 271.951 13.4902C270.292 13.4902 269.166 14.1966 268.574 15.6094V26.1094H266.045V11.3164H268.506L268.547 13.0254C269.376 11.7038 270.552 11.043 272.074 11.043C272.566 11.043 272.94 11.1068 273.195 11.2344V13.5859Z" fill="black"/>
<path d="M52.0703 2.52735H48.9102V2.20313C48.9102 1.93751 48.8008 1.68751 48.6094 1.50782C48.418 1.32423 48.1563 1.23438 47.8945 1.2461L29.0117 2.34376L10.1289 1.2461C9.86719 1.23438 9.60938 1.32423 9.41797 1.50782C9.22656 1.68751 9.11719 1.93751 9.11719 2.20313V2.52735H5.95703C5.42969 2.52735 5 2.95313 5 3.48438V34.043C5 34.5703 5.42969 35 5.95703 35H52.0703C52.5977 35 53.0273 34.5703 53.0273 34.043V3.48438C53.0273 2.95313 52.5977 2.52735 52.0703 2.52735ZM29.9688 4.20313L46.9961 3.21485V29.4805L29.9688 30.4649V4.20313ZM11.0312 3.21485L28.0547 4.20313V30.4649L11.0312 29.4805V3.21485ZM51.1133 33.0859H6.91406V4.44141H9.11719V30.3828C9.11719 30.8906 9.51172 31.3086 10.0195 31.3359L28.957 32.4336C28.9766 32.4375 28.9961 32.4375 29.0117 32.4375C29.0312 32.4375 29.0508 32.4375 29.0664 32.4336L48.0078 31.3359C48.5117 31.3086 48.9102 30.8906 48.9102 30.3828V4.44141H51.1133V33.0859Z" stroke="black"/>
<path d="M25.5 6.55469L18.8203 6.16798C18.293 6.13673 17.8398 6.53907 17.8086 7.06641C17.7812 7.59376 18.1836 8.04688 18.7109 8.07813L25.3906 8.46485C25.4062 8.46485 25.4258 8.46485 25.4453 8.46485C25.9492 8.46485 26.3711 8.07423 26.3984 7.56251C26.4297 7.03516 26.0273 6.58594 25.5 6.55469Z" stroke="black"/>
<path d="M13.8594 7.79688L15.5078 7.89063C15.5273 7.89063 15.5469 7.89454 15.5625 7.89454C16.0664 7.89454 16.4883 7.50001 16.5195 6.99219C16.5508 6.46485 16.1484 6.01173 15.6172 5.98048L13.9727 5.88673C13.4414 5.85548 12.9922 6.25782 12.9609 6.78516C12.9297 7.31251 13.332 7.76563 13.8594 7.79688Z" stroke="black"/>
<path d="M25.5 10.9453L13.9727 10.2774C13.4414 10.2461 12.9922 10.6484 12.9609 11.1758C12.9297 11.7031 13.332 12.1563 13.8594 12.1875L25.3906 12.8555C25.4062 12.8555 25.4258 12.8555 25.4453 12.8555C25.9492 12.8555 26.3711 12.4649 26.3984 11.957C26.4297 11.4297 26.0273 10.9766 25.5 10.9453Z" stroke="black"/>
<path d="M25.5 15.4297L13.9727 14.7617C13.4414 14.7305 12.9922 15.1328 12.9609 15.6602C12.9297 16.1875 13.332 16.6406 13.8594 16.6719L25.3906 17.3399C25.4062 17.3399 25.4258 17.3399 25.4453 17.3399C25.9492 17.3399 26.3711 16.9492 26.3984 16.4375C26.4297 15.9102 26.0273 15.4609 25.5 15.4297Z" stroke="black"/>
<path d="M25.5 19.8203L13.9727 19.1524C13.4414 19.1211 12.9922 19.5234 12.9609 20.0508C12.9297 20.5781 13.332 21.0313 13.8594 21.0625L25.3906 21.7305C25.4062 21.7305 25.4258 21.7305 25.4453 21.7305C25.9492 21.7305 26.3711 21.3399 26.3984 20.832C26.4297 20.3047 26.0273 19.8516 25.5 19.8203Z" stroke="black"/>
<path d="M44.2383 19.1524L37.1016 19.5664C36.5742 19.5977 36.168 20.0508 36.1992 20.5781C36.2305 21.0859 36.6523 21.4766 37.1562 21.4766C37.1719 21.4766 37.1914 21.4766 37.2109 21.4766L44.3477 21.0625C44.875 21.0313 45.2773 20.5781 45.2461 20.0508C45.2148 19.5234 44.7695 19.1211 44.2383 19.1524Z" stroke="black"/>
<path d="M34.2656 19.7305L32.707 19.8203C32.1797 19.8516 31.7773 20.3047 31.8086 20.832C31.8398 21.3399 32.2617 21.7305 32.7617 21.7305C32.7812 21.7305 32.8008 21.7305 32.8203 21.7305L34.375 21.6406C34.9023 21.6094 35.3047 21.1563 35.2734 20.6289C35.2422 20.1016 34.793 19.6992 34.2656 19.7305Z" stroke="black"/>
<path d="M44.2383 14.7617L32.707 15.4297C32.1797 15.457 31.7773 15.9102 31.8086 16.4375C31.8398 16.9492 32.2617 17.3399 32.7617 17.3399C32.7812 17.3399 32.8008 17.3399 32.8203 17.3399L44.3477 16.6719C44.875 16.6406 45.2773 16.1875 45.2461 15.6602C45.2148 15.1328 44.7695 14.7305 44.2383 14.7617Z" stroke="black"/>
<path d="M44.2383 10.2774L32.707 10.9453C32.1797 10.9766 31.7773 11.4297 31.8086 11.957C31.8398 12.4649 32.2617 12.8555 32.7617 12.8555C32.7812 12.8555 32.8008 12.8555 32.8203 12.8555L44.3477 12.1875C44.875 12.1563 45.2773 11.7031 45.2461 11.1758C45.2148 10.6484 44.7695 10.2461 44.2383 10.2774Z" stroke="black"/>
<path d="M44.2383 5.88673L32.707 6.55469C32.1797 6.58594 31.7773 7.03516 31.8086 7.56251C31.8398 8.07423 32.2617 8.46485 32.7617 8.46485C32.7812 8.46485 32.8008 8.46485 32.8203 8.46485L44.3477 7.79688C44.875 7.76563 45.2773 7.31251 45.2461 6.78516C45.2148 6.25782 44.7695 5.85548 44.2383 5.88673Z" stroke="black"/>
<path d="M64.3709 26.1094V6.20313H69.99C71.7218 6.20313 73.253 6.58595 74.5838 7.35157C75.9145 8.1172 76.9399 9.20639 77.6599 10.6191C78.3891 12.0319 78.7582 13.6543 78.7674 15.4863V16.7578C78.7674 18.6354 78.4028 20.2806 77.6736 21.6934C76.9536 23.1061 75.9191 24.1908 74.5701 24.9473C73.2303 25.7038 71.6671 26.0912 69.8806 26.1094H64.3709ZM66.9959 8.36329V23.9629H69.7576C71.781 23.9629 73.3533 23.334 74.4744 22.0762C75.6046 20.8184 76.1697 19.0274 76.1697 16.7031V15.541C76.1697 13.2806 75.6365 11.5261 74.5701 10.2774C73.5128 9.01954 72.0089 8.38152 70.0584 8.36329H66.9959Z" stroke="black"/>
<path d="M81.6795 18.5762C81.6795 17.127 81.962 15.8236 82.5271 14.666C83.1013 13.5085 83.8943 12.6152 84.906 11.9863C85.9269 11.3574 87.089 11.043 88.3924 11.043C90.4067 11.043 92.0336 11.7402 93.2732 13.1348C94.5219 14.5293 95.1463 16.3841 95.1463 18.6992V18.877C95.1463 20.3171 94.8683 21.6113 94.3123 22.7598C93.7654 23.8991 92.977 24.7878 91.9471 25.4258C90.9262 26.0638 89.7504 26.3828 88.4197 26.3828C86.4145 26.3828 84.7875 25.6856 83.5388 24.291C82.2993 22.8965 81.6795 21.0508 81.6795 18.7539V18.5762ZM84.2224 18.877C84.2224 20.5176 84.6007 21.8346 85.3572 22.8281C86.1228 23.8216 87.1437 24.3184 88.4197 24.3184C89.7049 24.3184 90.7257 23.8171 91.4822 22.8145C92.2387 21.8027 92.617 20.39 92.617 18.5762C92.617 16.9538 92.2296 15.6413 91.4549 14.6387C90.6892 13.627 89.6684 13.1211 88.3924 13.1211C87.1437 13.1211 86.1365 13.6178 85.3709 14.6113C84.6053 15.6048 84.2224 17.0267 84.2224 18.877Z" stroke="black"/>
<path d="M100.711 11.3164L100.793 13.1758C101.923 11.7539 103.4 11.043 105.222 11.043C108.349 11.043 109.926 12.8066 109.953 16.334V26.1094H107.424V16.3203C107.414 15.2539 107.168 14.4655 106.685 13.9551C106.211 13.4447 105.469 13.1895 104.457 13.1895C103.637 13.1895 102.916 13.4082 102.297 13.8457C101.677 14.2832 101.194 14.8574 100.847 15.5684V26.1094H98.3181V11.3164H100.711Z" stroke="black"/>
<path d="M122.9 26.1094C122.754 25.8177 122.636 25.2982 122.545 24.5508C121.369 25.7721 119.965 26.3828 118.334 26.3828C116.875 26.3828 115.677 25.9727 114.738 25.1524C113.808 24.3229 113.344 23.2747 113.344 22.0078C113.344 20.4675 113.927 19.2734 115.094 18.4258C116.269 17.569 117.919 17.1406 120.043 17.1406H122.504V15.9785C122.504 15.0944 122.239 14.3926 121.711 13.8731C121.182 13.3444 120.403 13.0801 119.373 13.0801C118.47 13.0801 117.714 13.308 117.103 13.7637C116.493 14.2194 116.187 14.7708 116.187 15.418H113.644C113.644 14.6797 113.904 13.9688 114.424 13.2852C114.952 12.5925 115.663 12.0456 116.556 11.6445C117.459 11.2435 118.448 11.043 119.523 11.043C121.228 11.043 122.563 11.4714 123.529 12.3281C124.495 13.1758 124.997 14.347 125.033 15.8418V22.6504C125.033 24.0085 125.206 25.0885 125.553 25.8906V26.1094H122.9ZM118.703 24.1816C119.496 24.1816 120.248 23.9766 120.959 23.5664C121.67 23.1563 122.185 22.6231 122.504 21.9668V18.9316H120.521C117.422 18.9316 115.873 19.8385 115.873 21.6524C115.873 22.4453 116.137 23.0651 116.666 23.5117C117.194 23.9583 117.873 24.1816 118.703 24.1816Z" stroke="black"/>
<path d="M132.429 7.73438V11.3164H135.191V13.2715H132.429V22.4453C132.429 23.0378 132.553 23.4844 132.799 23.7852C133.045 24.0768 133.464 24.2227 134.056 24.2227C134.348 24.2227 134.749 24.168 135.26 24.0586V26.1094C134.594 26.2917 133.947 26.3828 133.318 26.3828C132.188 26.3828 131.336 26.041 130.762 25.3574C130.187 24.6738 129.9 23.7031 129.9 22.4453V13.2715H127.207V11.3164H129.9V7.73438H132.429Z" stroke="black"/>
<path d="M140.906 26.1094H138.377V11.3164H140.906V26.1094ZM138.172 7.39259C138.172 6.98243 138.295 6.63608 138.541 6.35352C138.796 6.07097 139.17 5.9297 139.662 5.9297C140.154 5.9297 140.528 6.07097 140.783 6.35352C141.038 6.63608 141.166 6.98243 141.166 7.39259C141.166 7.80274 141.038 8.14454 140.783 8.41798C140.528 8.69141 140.154 8.82813 139.662 8.82813C139.17 8.82813 138.796 8.69141 138.541 8.41798C138.295 8.14454 138.172 7.80274 138.172 7.39259Z" stroke="black"/>
<path d="M144.297 18.5762C144.297 17.127 144.579 15.8236 145.144 14.666C145.719 13.5085 146.512 12.6152 147.523 11.9863C148.544 11.3574 149.706 11.043 151.01 11.043C153.024 11.043 154.651 11.7402 155.89 13.1348C157.139 14.5293 157.763 16.3841 157.763 18.6992V18.877C157.763 20.3171 157.485 21.6113 156.929 22.7598C156.383 23.8991 155.594 24.7878 154.564 25.4258C153.543 26.0638 152.368 26.3828 151.037 26.3828C149.032 26.3828 147.405 25.6856 146.156 24.291C144.916 22.8965 144.297 21.0508 144.297 18.7539V18.5762ZM146.84 18.877C146.84 20.5176 147.218 21.8346 147.974 22.8281C148.74 23.8216 149.761 24.3184 151.037 24.3184C152.322 24.3184 153.343 23.8171 154.099 22.8145C154.856 21.8027 155.234 20.39 155.234 18.5762C155.234 16.9538 154.847 15.6413 154.072 14.6387C153.306 13.627 152.286 13.1211 151.01 13.1211C149.761 13.1211 148.754 13.6178 147.988 14.6113C147.222 15.6048 146.84 17.0267 146.84 18.877Z" stroke="black"/>
<path d="M163.328 11.3164L163.41 13.1758C164.54 11.7539 166.017 11.043 167.84 11.043C170.966 11.043 172.543 12.8066 172.57 16.334V26.1094H170.041V16.3203C170.032 15.2539 169.786 14.4655 169.303 13.9551C168.829 13.4447 168.086 13.1895 167.074 13.1895C166.254 13.1895 165.534 13.4082 164.914 13.8457C164.294 14.2832 163.811 14.8574 163.465 15.5684V26.1094H160.935V11.3164H163.328Z" stroke="black"/>
<path d="M196.933 8.36329H190.535V26.1094H187.924V8.36329H181.539V6.20313H196.933V8.36329Z" stroke="black"/>
<path d="M205.601 13.5859C205.219 13.5221 204.804 13.4902 204.357 13.4902C202.698 13.4902 201.573 14.1966 200.98 15.6094V26.1094H198.451V11.3164H200.912L200.953 13.0254C201.782 11.7038 202.958 11.043 204.48 11.043C204.972 11.043 205.346 11.1068 205.601 11.2344V13.5859Z" stroke="black"/>
<path d="M216.525 26.1094C216.379 25.8177 216.261 25.2982 216.17 24.5508C214.994 25.7721 213.59 26.3828 211.959 26.3828C210.5 26.3828 209.302 25.9727 208.363 25.1524C207.433 24.3229 206.969 23.2747 206.969 22.0078C206.969 20.4675 207.552 19.2734 208.719 18.4258C209.894 17.569 211.544 17.1406 213.668 17.1406H216.129V15.9785C216.129 15.0944 215.864 14.3926 215.336 13.8731C214.807 13.3444 214.028 13.0801 212.998 13.0801C212.095 13.0801 211.339 13.308 210.728 13.7637C210.118 14.2194 209.812 14.7708 209.812 15.418H207.269C207.269 14.6797 207.529 13.9688 208.049 13.2852C208.577 12.5925 209.288 12.0456 210.181 11.6445C211.084 11.2435 212.073 11.043 213.148 11.043C214.853 11.043 216.188 11.4714 217.154 12.3281C218.12 13.1758 218.622 14.347 218.658 15.8418V22.6504C218.658 24.0085 218.831 25.0885 219.178 25.8906V26.1094H216.525ZM212.328 24.1816C213.121 24.1816 213.873 23.9766 214.584 23.5664C215.295 23.1563 215.81 22.6231 216.129 21.9668V18.9316H214.146C211.047 18.9316 209.498 19.8385 209.498 21.6524C209.498 22.4453 209.762 23.0651 210.291 23.5117C210.819 23.9583 211.498 24.1816 212.328 24.1816Z" stroke="black"/>
<path d="M228.556 24.3184C229.459 24.3184 230.247 24.0449 230.922 23.4981C231.596 22.9512 231.97 22.2676 232.043 21.4473H234.435C234.39 22.2949 234.098 23.1016 233.56 23.8672C233.023 24.6328 232.303 25.2435 231.4 25.6992C230.507 26.155 229.559 26.3828 228.556 26.3828C226.542 26.3828 224.938 25.7129 223.744 24.3731C222.559 23.0241 221.967 21.183 221.967 18.8496V18.4258C221.967 16.9857 222.231 15.7051 222.76 14.584C223.288 13.4629 224.045 12.5925 225.029 11.9727C226.023 11.3529 227.194 11.043 228.543 11.043C230.202 11.043 231.578 11.5397 232.672 12.5332C233.775 13.5267 234.362 14.8164 234.435 16.4024H232.043C231.97 15.4453 231.605 14.6615 230.949 14.0508C230.302 13.431 229.5 13.1211 228.543 13.1211C227.258 13.1211 226.26 13.5859 225.549 14.5156C224.847 15.4362 224.496 16.7715 224.496 18.5215V19C224.496 20.7044 224.847 22.0169 225.549 22.9375C226.25 23.8581 227.253 24.3184 228.556 24.3184Z" stroke="black"/>
<path d="M241.408 19.2598L239.822 20.9141V26.1094H237.293V5.10938H239.822V17.8106L241.176 16.1836L245.783 11.3164H248.859L243.103 17.4961L249.529 26.1094H246.562L241.408 19.2598Z" stroke="black"/>
<path d="M257.336 26.3828C255.331 26.3828 253.699 25.7266 252.441 24.4141C251.183 23.0925 250.554 21.3288 250.554 19.1231V18.6582C250.554 17.1908 250.832 15.8828 251.388 14.7344C251.954 13.5768 252.737 12.6745 253.74 12.0274C254.752 11.3711 255.845 11.043 257.021 11.043C258.944 11.043 260.439 11.6764 261.506 12.9434C262.572 14.2103 263.105 16.0241 263.105 18.3848V19.4375H253.084C253.12 20.8958 253.544 22.0762 254.355 22.9785C255.176 23.8718 256.215 24.3184 257.472 24.3184C258.366 24.3184 259.122 24.1361 259.742 23.7715C260.362 23.4069 260.904 22.9238 261.369 22.3223L262.914 23.5254C261.674 25.4303 259.815 26.3828 257.336 26.3828ZM257.021 13.1211C256 13.1211 255.144 13.4948 254.451 14.2422C253.758 14.9805 253.33 16.0195 253.166 17.3594H260.576V17.168C260.503 15.8828 260.157 14.8893 259.537 14.1875C258.917 13.4766 258.079 13.1211 257.021 13.1211Z" stroke="black"/>
<path d="M273.195 13.5859C272.812 13.5221 272.398 13.4902 271.951 13.4902C270.292 13.4902 269.166 14.1966 268.574 15.6094V26.1094H266.045V11.3164H268.506L268.547 13.0254C269.376 11.7038 270.552 11.043 272.074 11.043C272.566 11.043 272.94 11.1068 273.195 11.2344V13.5859Z" stroke="black"/>
</g>
<defs>
<filter id="filter0_d" x="0.5" y="0.745087" width="277.195" height="42.7549" filterUnits="userSpaceOnUse" color-interpolation-filters="sRGB">
<feFlood flood-opacity="0" result="BackgroundImageFix"/>
<feColorMatrix in="SourceAlpha" type="matrix" values="0 0 0 0 0 0 0 0 0 0 0 0 0 0 0 0 0 0 127 0"/>
<feOffset dy="4"/>
<feGaussianBlur stdDeviation="2"/>
<feColorMatrix type="matrix" values="0 0 0 0 0 0 0 0 0 0 0 0 0 0 0 0 0 0 0.15 0"/>
<feBlend mode="normal" in2="BackgroundImageFix" result="effect1_dropShadow"/>
<feBlend mode="normal" in="SourceGraphic" in2="effect1_dropShadow" result="shape"/>
</filter>
</defs>
</svg>
