<svg width="38" height="44" viewBox="0 0 38 44" fill="none" xmlns="http://www.w3.org/2000/svg">
<path d="M0 2.16763H38V42.5175H0V2.16763Z" fill="#B2B2B2"/>
<line x1="3.76463" y1="14.5058" x2="35.1869" y2="14.5058" stroke="white"/>
<line x1="3.76463" y1="19.1686" x2="35.1869" y2="19.1686" stroke="white"/>
<line x1="3.76463" y1="23.8314" x2="35.1869" y2="23.8314" stroke="white"/>
<line x1="3.76463" y1="28.4942" x2="35.1869" y2="28.4942" stroke="white"/>
<line x1="12.1944" y1="34.5229" x2="35.1869" y2="34.5229" stroke="white"/>
<line x1="12.1944" y1="38.9157" x2="35.1869" y2="38.9157" stroke="white"/>
<path d="M6.29664 12.2176C6.16997 12.2176 6.06664 12.181 5.98664 12.1076C5.91331 12.0276 5.87664 11.9243 5.87664 11.7976V5.81763H3.72664C3.60664 5.81763 3.51331 5.78763 3.44664 5.72763C3.37997 5.66763 3.34664 5.58097 3.34664 5.46763C3.34664 5.3543 3.37997 5.26763 3.44664 5.20763C3.51331 5.14763 3.60664 5.11763 3.72664 5.11763H8.85664C8.97664 5.11763 9.06997 5.14763 9.13664 5.20763C9.20331 5.26763 9.23664 5.3543 9.23664 5.46763C9.23664 5.58097 9.20331 5.66763 9.13664 5.72763C9.06997 5.78763 8.97664 5.81763 8.85664 5.81763H6.70664V11.7976C6.70664 11.9243 6.66997 12.0276 6.59664 12.1076C6.52331 12.181 6.42331 12.2176 6.29664 12.2176ZM11.2615 7.17763C12.4815 7.17763 13.0915 7.81763 13.0915 9.09763V11.8176C13.0915 11.9376 13.0548 12.0343 12.9815 12.1076C12.9148 12.181 12.8215 12.2176 12.7015 12.2176C12.5815 12.2176 12.4848 12.181 12.4115 12.1076C12.3382 12.0343 12.3015 11.9376 12.3015 11.8176V11.3376C12.1748 11.6243 11.9815 11.8476 11.7215 12.0076C11.4615 12.161 11.1615 12.2376 10.8215 12.2376C10.5082 12.2376 10.2182 12.1743 9.95148 12.0476C9.69148 11.921 9.48482 11.7443 9.33148 11.5176C9.17815 11.291 9.10148 11.041 9.10148 10.7676C9.10148 10.401 9.19482 10.1176 9.38148 9.91763C9.56815 9.71097 9.87482 9.5643 10.3015 9.47763C10.7282 9.3843 11.3215 9.33763 12.0815 9.33763H12.3015V9.00763C12.3015 8.60763 12.2182 8.3143 12.0515 8.12763C11.8915 7.94097 11.6282 7.84763 11.2615 7.84763C10.8082 7.84763 10.3482 7.97097 9.88148 8.21763C9.70148 8.33097 9.57482 8.38763 9.50148 8.38763C9.42148 8.38763 9.35482 8.35763 9.30148 8.29763C9.24815 8.23763 9.22148 8.16097 9.22148 8.06763C9.22148 7.9743 9.24815 7.8943 9.30148 7.82763C9.36148 7.7543 9.45482 7.68097 9.58148 7.60763C9.81482 7.4743 10.0782 7.37097 10.3715 7.29763C10.6715 7.21763 10.9682 7.17763 11.2615 7.17763ZM10.9315 11.5976C11.3315 11.5976 11.6582 11.4643 11.9115 11.1976C12.1715 10.9243 12.3015 10.5743 12.3015 10.1476V9.85763H12.1215C11.5348 9.85763 11.0882 9.8843 10.7815 9.93763C10.4748 9.9843 10.2548 10.0676 10.1215 10.1876C9.99482 10.301 9.93148 10.471 9.93148 10.6976C9.93148 10.9576 10.0248 11.1743 10.2115 11.3476C10.4048 11.5143 10.6448 11.5976 10.9315 11.5976ZM18.5742 11.5476C18.6542 11.6276 18.6942 11.7243 18.6942 11.8376C18.6942 11.9376 18.6576 12.0243 18.5842 12.0976C18.5109 12.171 18.4242 12.2076 18.3242 12.2076C18.2176 12.2076 18.1209 12.161 18.0342 12.0676L16.4142 10.2176L14.8042 12.0676C14.7176 12.161 14.6209 12.2076 14.5142 12.2076C14.4142 12.2076 14.3242 12.171 14.2442 12.0976C14.1709 12.0243 14.1342 11.9343 14.1342 11.8276C14.1342 11.7276 14.1742 11.6343 14.2542 11.5476L15.9142 9.67763L14.3242 7.86763C14.2442 7.7743 14.2042 7.68097 14.2042 7.58763C14.2042 7.48097 14.2409 7.39097 14.3142 7.31763C14.3942 7.2443 14.4809 7.20763 14.5742 7.20763C14.6809 7.20763 14.7776 7.2543 14.8642 7.34763L16.4142 9.12763L17.9642 7.34763C18.0509 7.2543 18.1476 7.20763 18.2542 7.20763C18.3542 7.20763 18.4409 7.2443 18.5142 7.31763C18.5876 7.39097 18.6242 7.47763 18.6242 7.57763C18.6242 7.69097 18.5842 7.78763 18.5042 7.86763L16.9142 9.67763L18.5742 11.5476Z" fill="white"/>
<path d="M9.91864 38.055C9.91864 38.679 9.69064 39.207 9.23464 39.639C8.78664 40.063 8.19064 40.319 7.44664 40.407V41.331C7.44664 41.467 7.40664 41.575 7.32664 41.655C7.25464 41.735 7.15464 41.775 7.02664 41.775C6.89864 41.775 6.79464 41.735 6.71464 41.655C6.64264 41.575 6.60664 41.467 6.60664 41.331V40.419C6.11864 40.387 5.64664 40.291 5.19064 40.131C4.73464 39.971 4.34664 39.743 4.02664 39.447C3.89864 39.343 3.83464 39.207 3.83464 39.039C3.83464 38.927 3.86664 38.831 3.93064 38.751C3.99464 38.663 4.07064 38.619 4.15864 38.619C4.25464 38.619 4.37064 38.663 4.50664 38.751C5.30664 39.311 6.11064 39.591 6.91864 39.591C7.55064 39.591 8.04264 39.459 8.39464 39.195C8.74664 38.931 8.92264 38.555 8.92264 38.067C8.92264 37.779 8.83064 37.547 8.64664 37.371C8.47064 37.187 8.24264 37.047 7.96264 36.951C7.69064 36.847 7.31864 36.739 6.84664 36.627C6.23864 36.475 5.74664 36.323 5.37064 36.171C5.00264 36.019 4.68664 35.787 4.42264 35.475C4.15864 35.163 4.02664 34.743 4.02664 34.215C4.02664 33.783 4.13464 33.395 4.35064 33.051C4.56664 32.699 4.86664 32.415 5.25064 32.199C5.64264 31.983 6.09064 31.851 6.59464 31.803V30.879C6.59464 30.751 6.63464 30.647 6.71464 30.567C6.79464 30.479 6.89464 30.435 7.01464 30.435C7.14264 30.435 7.24264 30.475 7.31464 30.555C7.39464 30.635 7.43464 30.743 7.43464 30.879V31.803C7.85864 31.843 8.26664 31.943 8.65864 32.103C9.05064 32.263 9.38264 32.483 9.65464 32.763C9.79064 32.875 9.85864 33.011 9.85864 33.171C9.85864 33.283 9.82264 33.383 9.75064 33.471C9.68664 33.551 9.61064 33.591 9.52264 33.591C9.41864 33.591 9.30664 33.547 9.18664 33.459C8.83464 33.171 8.49064 32.959 8.15464 32.823C7.82664 32.687 7.44264 32.619 7.00264 32.619C6.39464 32.619 5.91064 32.759 5.55064 33.039C5.19864 33.319 5.02264 33.699 5.02264 34.179C5.02264 34.515 5.11864 34.783 5.31064 34.983C5.51064 35.183 5.75464 35.339 6.04264 35.451C6.33064 35.555 6.72664 35.671 7.23064 35.799C7.81464 35.943 8.28264 36.087 8.63464 36.231C8.99464 36.375 9.29864 36.595 9.54664 36.891C9.79464 37.179 9.91864 37.567 9.91864 38.055Z" fill="white"/>
</svg>
