<svg width="26" height="32" viewBox="0 0 26 32" fill="none" xmlns="http://www.w3.org/2000/svg">
<path d="M0.227448 2.12801H25.2274V30.128H0.227448V2.12801Z" fill="#B2B2B2"/>
<line x1="2.70418" y1="12.1238" x2="22.7507" y2="12.1238" stroke="white"/>
<line x1="2.70418" y1="15.2075" x2="22.7507" y2="15.2075" stroke="white"/>
<line x1="2.70418" y1="18.2912" x2="22.7507" y2="18.2912" stroke="white"/>
<line x1="2.70418" y1="21.3749" x2="22.7507" y2="21.3749" stroke="white"/>
<line x1="7.62411" y1="24.4273" x2="22.7508" y2="24.4273" stroke="white"/>
<line x1="7.62411" y1="27.4755" x2="22.7508" y2="27.4755" stroke="white"/>
<path d="M5.39518 9.66882C5.28118 9.66882 5.18818 9.63582 5.11618 9.56982C5.05018 9.49782 5.01718 9.40482 5.01718 9.29082V3.90882H3.08218C2.97418 3.90882 2.89018 3.88182 2.83018 3.82782C2.77018 3.77382 2.74018 3.69582 2.74018 3.59382C2.74018 3.49182 2.77018 3.41382 2.83018 3.35982C2.89018 3.30582 2.97418 3.27882 3.08218 3.27882H7.69918C7.80718 3.27882 7.89118 3.30582 7.95118 3.35982C8.01118 3.41382 8.04118 3.49182 8.04118 3.59382C8.04118 3.69582 8.01118 3.77382 7.95118 3.82782C7.89118 3.88182 7.80718 3.90882 7.69918 3.90882H5.76418V9.29082C5.76418 9.40482 5.73118 9.49782 5.66518 9.56982C5.59918 9.63582 5.50918 9.66882 5.39518 9.66882ZM9.86354 5.13282C10.9615 5.13282 11.5105 5.70882 11.5105 6.86082V9.30882C11.5105 9.41682 11.4775 9.50382 11.4115 9.56982C11.3515 9.63582 11.2675 9.66882 11.1595 9.66882C11.0515 9.66882 10.9645 9.63582 10.8985 9.56982C10.8325 9.50382 10.7995 9.41682 10.7995 9.30882V8.87682C10.6855 9.13482 10.5115 9.33582 10.2775 9.47982C10.0435 9.61782 9.77354 9.68682 9.46754 9.68682C9.18554 9.68682 8.92454 9.62982 8.68454 9.51582C8.45054 9.40182 8.26454 9.24282 8.12654 9.03882C7.98854 8.83482 7.91954 8.60982 7.91954 8.36382C7.91954 8.03382 8.00354 7.77882 8.17154 7.59882C8.33954 7.41282 8.61554 7.28082 8.99954 7.20282C9.38354 7.11882 9.91754 7.07682 10.6015 7.07682H10.7995V6.77982C10.7995 6.41982 10.7245 6.15582 10.5745 5.98782C10.4305 5.81982 10.1935 5.73582 9.86354 5.73582C9.45554 5.73582 9.04154 5.84682 8.62154 6.06882C8.45954 6.17082 8.34554 6.22182 8.27954 6.22182C8.20754 6.22182 8.14754 6.19482 8.09954 6.14082C8.05154 6.08682 8.02754 6.01782 8.02754 5.93382C8.02754 5.84982 8.05154 5.77782 8.09954 5.71782C8.15354 5.65182 8.23754 5.58582 8.35154 5.51982C8.56154 5.39982 8.79854 5.30682 9.06254 5.24082C9.33254 5.16882 9.59954 5.13282 9.86354 5.13282ZM9.56654 9.11082C9.92654 9.11082 10.2205 8.99082 10.4485 8.75082C10.6825 8.50482 10.7995 8.18982 10.7995 7.80582V7.54482H10.6375C10.1095 7.54482 9.70754 7.56882 9.43154 7.61682C9.15554 7.65882 8.95754 7.73382 8.83754 7.84182C8.72354 7.94382 8.66654 8.09682 8.66654 8.30082C8.66654 8.53482 8.75054 8.72982 8.91854 8.88582C9.09254 9.03582 9.30854 9.11082 9.56654 9.11082ZM16.445 9.06582C16.517 9.13782 16.553 9.22482 16.553 9.32682C16.553 9.41682 16.52 9.49482 16.454 9.56082C16.388 9.62682 16.31 9.65982 16.22 9.65982C16.124 9.65982 16.037 9.61782 15.959 9.53382L14.501 7.86882L13.052 9.53382C12.974 9.61782 12.887 9.65982 12.791 9.65982C12.701 9.65982 12.62 9.62682 12.548 9.56082C12.482 9.49482 12.449 9.41382 12.449 9.31782C12.449 9.22782 12.485 9.14382 12.557 9.06582L14.051 7.38282L12.62 5.75382C12.548 5.66982 12.512 5.58582 12.512 5.50182C12.512 5.40582 12.545 5.32482 12.611 5.25882C12.683 5.19282 12.761 5.15982 12.845 5.15982C12.941 5.15982 13.028 5.20182 13.106 5.28582L14.501 6.88782L15.896 5.28582C15.974 5.20182 16.061 5.15982 16.157 5.15982C16.247 5.15982 16.325 5.19282 16.391 5.25882C16.457 5.32482 16.49 5.40282 16.49 5.49282C16.49 5.59482 16.454 5.68182 16.382 5.75382L14.951 7.38282L16.445 9.06582Z" fill="white"/>
<path d="M6.56118 27.5449C6.56118 27.9089 6.42818 28.2169 6.16218 28.4689C5.90084 28.7162 5.55318 28.8655 5.11918 28.9169V29.4559C5.11918 29.5352 5.09584 29.5982 5.04918 29.6449C5.00718 29.6915 4.94884 29.7149 4.87418 29.7149C4.79951 29.7149 4.73884 29.6915 4.69218 29.6449C4.65018 29.5982 4.62918 29.5352 4.62918 29.4559V28.9239C4.34451 28.9052 4.06918 28.8492 3.80318 28.7559C3.53718 28.6625 3.31084 28.5295 3.12418 28.3569C3.04951 28.2962 3.01218 28.2169 3.01218 28.1189C3.01218 28.0535 3.03084 27.9975 3.06818 27.9509C3.10551 27.8995 3.14984 27.8739 3.20118 27.8739C3.25718 27.8739 3.32484 27.8995 3.40418 27.9509C3.87084 28.2775 4.33984 28.4409 4.81118 28.4409C5.17984 28.4409 5.46684 28.3639 5.67218 28.2099C5.87751 28.0559 5.98018 27.8365 5.98018 27.5519C5.98018 27.3839 5.92651 27.2485 5.81918 27.1459C5.71651 27.0385 5.58351 26.9569 5.42018 26.9009C5.26151 26.8402 5.04451 26.7772 4.76918 26.7119C4.41451 26.6232 4.12751 26.5345 3.90818 26.4459C3.69351 26.3572 3.50918 26.2219 3.35518 26.0399C3.20118 25.8579 3.12418 25.6129 3.12418 25.3049C3.12418 25.0529 3.18718 24.8265 3.31318 24.6259C3.43918 24.4205 3.61418 24.2549 3.83818 24.1289C4.06684 24.0029 4.32818 23.9259 4.62218 23.8979V23.3589C4.62218 23.2842 4.64551 23.2235 4.69218 23.1769C4.73884 23.1255 4.79718 23.0999 4.86718 23.0999C4.94184 23.0999 5.00018 23.1232 5.04218 23.1699C5.08884 23.2165 5.11218 23.2795 5.11218 23.3589V23.8979C5.35951 23.9212 5.59751 23.9795 5.82618 24.0729C6.05484 24.1662 6.24851 24.2945 6.40718 24.4579C6.48651 24.5232 6.52618 24.6025 6.52618 24.6959C6.52618 24.7612 6.50518 24.8195 6.46318 24.8709C6.42584 24.9175 6.38151 24.9409 6.33018 24.9409C6.26951 24.9409 6.20418 24.9152 6.13418 24.8639C5.92884 24.6959 5.72818 24.5722 5.53218 24.4929C5.34084 24.4135 5.11684 24.3739 4.86018 24.3739C4.50551 24.3739 4.22318 24.4555 4.01318 24.6189C3.80784 24.7822 3.70518 25.0039 3.70518 25.2839C3.70518 25.4799 3.76118 25.6362 3.87318 25.7529C3.98984 25.8695 4.13218 25.9605 4.30018 26.0259C4.46818 26.0865 4.69918 26.1542 4.99318 26.2289C5.33384 26.3129 5.60684 26.3969 5.81218 26.4809C6.02218 26.5649 6.19951 26.6932 6.34418 26.8659C6.48884 27.0339 6.56118 27.2602 6.56118 27.5449Z" fill="white"/>
</svg>
